<svg xmlns="http://www.w3.org/2000/svg" xmlns:xlink="http://www.w3.org/1999/xlink" width="500" zoomAndPan="magnify" viewBox="0 0 375 374.999991" height="500" preserveAspectRatio="xMidYMid meet" version="1.0"><defs><filter x="0%" y="0%" width="100%" height="100%" id="id1"><feColorMatrix values="0 0 0 0 1 0 0 0 0 1 0 0 0 0 1 0 0 0 1 0" color-interpolation-filters="sRGB"/></filter><g/><mask id="id2"><g filter="url(#id1)"><rect x="-37.5" width="450" fill="#000000" y="-37.499999" height="449.999989" fill-opacity="0.4784"/></g></mask><clipPath id="id3"><path d="M 1 0.960938 L 300.5 0.960938 L 300.5 126.960938 L 1 126.960938 Z M 1 0.960938 " clip-rule="nonzero"/></clipPath><clipPath id="id4"><rect x="0" width="301" y="0" height="128"/></clipPath><clipPath id="id5"><path d="M 111.886719 71.128906 L 149.816406 71.128906 L 149.816406 139.378906 L 111.886719 139.378906 Z M 111.886719 71.128906 " clip-rule="nonzero"/></clipPath><clipPath id="id6"><path d="M 225.183594 71.128906 L 263.113281 71.128906 L 263.113281 139.378906 L 225.183594 139.378906 Z M 225.183594 71.128906 " clip-rule="nonzero"/></clipPath><clipPath id="id7"><path d="M 115.386719 93.554688 L 263.886719 93.554688 L 263.886719 242.054688 L 115.386719 242.054688 Z M 115.386719 93.554688 " clip-rule="nonzero"/></clipPath></defs><g mask="url(#id2)"><g transform="matrix(1, 0, 0, 1, 37, 104)"><g clip-path="url(#id4)"><g clip-path="url(#id3)"><path fill="#fdfdfd" d="M 6.171875 64.46875 C 6.171875 64.46875 3.179688 58.886719 1.980469 55.105469 C 1.980469 55.105469 0.546875 59.007812 1.5625 64.171875 C 1.5625 64.171875 2.519531 71.855469 8.804688 73.113281 C 8.804688 73.113281 5.933594 68.851562 6.171875 64.46875 Z M 123.957031 13.503906 C 123.957031 13.503906 116.296875 11.464844 112.765625 2.761719 C 112.765625 2.761719 110.011719 15.785156 109.832031 22.808594 C 109.832031 22.808594 109.054688 15.605469 109.351562 9.484375 C 109.351562 9.484375 104.207031 16.808594 103.609375 26.773438 C 103.488281 28.632812 103.488281 30.492188 103.546875 32.414062 L 101.511719 21.308594 C 101.511719 21.308594 98.519531 18.1875 97.621094 14.285156 C 97.621094 14.285156 96.246094 21.429688 96.1875 26.292969 C 96.1875 26.292969 94.75 18.96875 95.289062 10.925781 L 86.429688 20.167969 L 83.976562 29.652344 C 83.976562 29.652344 83.675781 30.792969 83.4375 32.773438 C 81.105469 28.933594 79.847656 21.070312 79.847656 21.070312 C 78.292969 26.472656 77.152344 32.894531 77.152344 32.894531 C 77.09375 25.933594 77.871094 22.511719 77.871094 22.511719 L 75.539062 19.867188 C 72.726562 18.789062 71.167969 16.808594 71.167969 16.808594 C 63.628906 22.808594 62.492188 36.675781 62.492188 36.675781 C 62.492188 36.917969 62.492188 37.097656 62.492188 37.335938 L 61.175781 31.574219 C 61.175781 31.574219 56.925781 27.734375 55.367188 23.769531 C 55.367188 23.769531 51 33.316406 50.402344 39.078125 C 50.402344 39.078125 50.761719 28.453125 53.152344 21.730469 L 43.9375 32.835938 C 43.9375 32.835938 43.519531 36.195312 41.902344 44.300781 C 41.902344 44.300781 41.78125 47.601562 42.441406 51.984375 L 39.089844 41.417969 L 32.207031 33.195312 C 32.207031 33.195312 29.691406 41.71875 29.8125 49.582031 C 29.8125 49.582031 29.09375 38.898438 30.171875 31.574219 C 30.171875 31.574219 25.324219 37.9375 24.007812 46.703125 L 24.785156 58.828125 C 23.828125 55.765625 22.988281 53.125 22.988281 53.125 C 20.417969 50.902344 19.816406 47.78125 19.816406 47.78125 L 14.550781 41 C 14.550781 41 11.4375 46.523438 11.617188 51.5625 C 11.917969 59.726562 14.609375 63.03125 14.609375 63.03125 C 12.636719 56.546875 13.355469 51.082031 13.355469 51.082031 C 13.054688 61.347656 19.757812 71.914062 19.757812 71.914062 C 17.960938 70.113281 14.550781 65.492188 14.550781 65.492188 L 11.257812 58.648438 C 6.292969 54.207031 5.035156 52.222656 5.035156 52.222656 L 5.753906 61.347656 C 7.96875 65.308594 7.367188 68.070312 7.367188 68.070312 C 10.898438 74.613281 15.03125 77.316406 15.03125 77.316406 C 14.011719 74.375 17.183594 72.632812 17.183594 72.632812 L 17.722656 71.074219 C 21.492188 76.835938 25.085938 78.996094 25.085938 78.996094 C 25.445312 74.195312 28.257812 72.753906 28.257812 72.753906 L 27.957031 69.753906 C 29.511719 72.933594 31.789062 76.234375 34.960938 78.214844 C 34.960938 78.214844 34.960938 74.316406 38.371094 74.195312 L 41.304688 72.09375 L 44.175781 67.890625 L 40.707031 57.386719 L 45.792969 66.8125 C 45.792969 66.8125 44.058594 61.289062 43.636719 57.148438 C 44.59375 60.269531 46.03125 63.507812 48.246094 66.210938 C 48.246094 66.210938 50.640625 64.648438 52.257812 66.992188 L 55.96875 68.191406 C 55.96875 68.191406 53.035156 63.089844 51.835938 59.609375 C 51.835938 59.609375 55.488281 64.949219 57.703125 66.75 C 57.703125 66.75 58.300781 62.488281 61.054688 61.648438 L 63.6875 58.648438 C 63.6875 58.648438 61.234375 53.183594 62.429688 43.640625 C 62.730469 53.003906 64.644531 56.726562 64.644531 56.726562 C 63.988281 51.683594 65.125 44.960938 65.125 44.960938 C 65.664062 54.265625 68.117188 62.308594 68.117188 62.308594 C 70.390625 63.570312 74.640625 66.929688 74.640625 66.929688 C 77.035156 63.089844 80.144531 63.449219 80.144531 63.449219 C 78.292969 57.566406 77.511719 48.324219 77.511719 48.324219 C 78.292969 53.84375 81.042969 60.328125 81.042969 60.328125 L 84.277344 55.824219 C 83.378906 52.285156 83.320312 48.140625 83.4375 45.140625 C 83.796875 48.261719 84.574219 51.625 85.832031 55.105469 C 85.832031 55.105469 84.695312 48.261719 84.695312 44 C 84.695312 44 86.132812 56.484375 94.511719 66.269531 L 99.117188 59.789062 C 99.117188 59.789062 98.757812 55.585938 104.503906 52.042969 C 104.445312 51.683594 104.085938 40.160156 103.90625 34.996094 C 104.324219 42.257812 105.523438 48.5625 105.523438 48.5625 L 110.667969 54.144531 C 110.667969 54.144531 109.292969 47.480469 109.351562 41.898438 C 109.351562 41.898438 111.988281 54.386719 120.1875 59.667969 L 125.574219 55.707031 L 128.984375 51.925781 C 128.984375 51.925781 128.625 46.402344 130.179688 39.199219 L 129.042969 20.589844 Z M 300.453125 49.941406 L 299.914062 41.777344 C 299.914062 41.777344 298.777344 42.917969 295.128906 47.542969 C 295.367188 45.859375 295.488281 43.761719 295.1875 41.300781 C 294.828125 38.175781 290.996094 34.035156 290.996094 34.035156 L 287.109375 38.417969 C 287.109375 38.417969 286.03125 41.480469 283.933594 43.582031 C 283.933594 43.582031 283.578125 45.019531 283.15625 47 C 282.082031 40.097656 281.242188 37.515625 281.242188 37.515625 L 273.761719 28.453125 C 275.675781 34.875 275.4375 44.78125 275.4375 44.78125 C 275.199219 39.378906 271.605469 30.253906 271.605469 30.253906 C 269.929688 33.855469 265.980469 35.117188 265.980469 35.117188 L 264.183594 41.417969 C 264.183594 41 264.183594 40.640625 264.183594 40.21875 C 264.183594 40.21875 263.886719 26.230469 256.703125 19.808594 C 256.703125 19.808594 255.085938 21.667969 252.15625 22.570312 L 249.703125 25.03125 C 249.703125 25.03125 250.238281 28.511719 249.761719 35.476562 C 249.761719 35.476562 249.042969 28.992188 247.785156 23.53125 C 247.785156 23.53125 246.050781 31.335938 243.476562 34.996094 L 243.355469 36.257812 C 243.058594 31.816406 242.757812 28.394531 242.757812 28.394531 L 238.6875 22.269531 L 238.867188 26.890625 L 235.578125 16.6875 C 233.542969 13.804688 228.335938 12.425781 228.335938 12.425781 C 226.957031 18.1875 219.65625 22.570312 219.65625 22.570312 L 216.363281 36.675781 C 216.425781 32.957031 216.304688 28.632812 215.828125 23.769531 C 215.828125 23.769531 213.132812 16.386719 208.523438 9.785156 C 208.523438 9.785156 209.242188 16.085938 209.121094 23.351562 C 209.121094 23.351562 208.464844 11.703125 204.214844 4.742188 C 204.214844 4.742188 198.289062 11.945312 194.757812 14.226562 L 186.980469 25.210938 L 186.980469 25.269531 C 186.917969 23.769531 186.738281 22.269531 186.5 20.710938 C 186.5 20.710938 186.199219 26.472656 185.363281 30.554688 C 185.363281 30.554688 185.242188 21.070312 183.6875 13.445312 C 183.6875 13.445312 176.683594 5.28125 172.195312 0.960938 L 162.261719 12.546875 L 157.351562 28.992188 L 157.292969 19.328125 C 153.523438 14.945312 152.984375 10.925781 152.984375 10.925781 L 145.800781 3.421875 C 145.082031 6.78125 140.175781 9.242188 140.175781 9.242188 C 137.902344 15.546875 136.644531 28.453125 136.644531 28.453125 C 136.464844 21.609375 137.242188 12.003906 137.242188 12.003906 L 131.617188 19.386719 C 131.617188 19.386719 129.523438 32.355469 130 39.316406 C 130.421875 46.28125 132.8125 54.207031 132.8125 54.207031 C 137.484375 52.703125 140.59375 56.125 140.59375 56.125 L 145.441406 58.949219 L 151.964844 56.667969 C 150.53125 48.023438 151.847656 39.136719 151.847656 39.136719 C 151.308594 46.460938 153.703125 51.445312 153.703125 51.445312 C 153.28125 47.300781 157.414062 43.28125 157.414062 43.28125 L 157.292969 29.171875 L 159.507812 46.761719 C 159.507812 46.761719 163.875 49.644531 165.492188 54.804688 L 172.195312 60.566406 C 172.195312 60.566406 177.34375 52.042969 179.796875 37.398438 C 179.796875 37.398438 177.882812 52.285156 177.222656 55.644531 C 177.222656 55.644531 182.011719 51.863281 184.226562 45.382812 C 184.226562 45.382812 184.285156 45.261719 184.34375 44.960938 L 185.78125 48.921875 C 185.78125 48.921875 189.851562 52.464844 190.988281 56.304688 C 190.988281 56.304688 196.792969 58.40625 200.144531 61.828125 C 200.144531 61.828125 202.480469 53.726562 202.359375 42.859375 C 202.359375 42.859375 204.035156 52.585938 202.0625 64.769531 L 207.566406 61.347656 C 207.566406 61.347656 210.378906 55.644531 214.6875 51.382812 C 214.6875 51.382812 215.40625 48.800781 215.886719 44.121094 L 217.082031 54.144531 C 225.34375 55.046875 228.453125 62.789062 228.453125 62.789062 L 233.300781 65.851562 C 239.945312 60.449219 240.183594 48.023438 240.183594 48.023438 C 240.664062 61.589844 235.695312 67.472656 235.695312 67.472656 C 235.695312 67.472656 239.226562 63.570312 241.5625 58.765625 L 244.136719 62.847656 C 244.136719 62.847656 247.246094 56.546875 248.382812 51.082031 C 248.382812 51.082031 247.007812 60.328125 244.792969 66.03125 C 244.792969 66.03125 247.90625 65.851562 250.058594 69.871094 C 250.058594 69.871094 254.550781 66.8125 256.882812 65.671875 C 256.882812 65.671875 259.875 57.746094 260.953125 48.503906 C 260.953125 48.503906 261.671875 55.285156 260.714844 60.269531 C 260.714844 60.269531 263.167969 56.125 263.886719 45.082031 C 264.964844 54.925781 262.089844 60.507812 262.089844 60.507812 L 264.363281 63.449219 C 266.878906 64.351562 267.238281 68.371094 267.238281 68.371094 C 269.390625 66.8125 273.101562 62.007812 273.101562 62.007812 C 271.785156 65.191406 268.492188 70.414062 268.492188 70.414062 L 272.804688 69.632812 C 274.417969 67.53125 276.15625 68.371094 276.15625 68.371094 C 277.832031 66.511719 279.148438 64.289062 280.105469 62.128906 L 280.046875 63.871094 C 280.046875 63.871094 282.917969 65.128906 283.636719 69.933594 C 283.636719 69.933594 287.109375 67.53125 290.398438 61.648438 L 290.339844 61.890625 L 291.175781 63.390625 C 291.175781 63.390625 294.410156 66.570312 293.929688 69.632812 C 293.929688 69.632812 298.121094 64.832031 300.035156 57.085938 C 300.09375 56.847656 298.957031 54.265625 300.453125 49.941406 Z M 293.09375 53.304688 L 292.433594 55.464844 L 291.65625 57.746094 C 290.636719 59.246094 289.320312 61.109375 288.484375 62.128906 C 288.484375 62.128906 294.410156 51.144531 293.453125 40.878906 C 293.453125 40.9375 294.589844 46.703125 293.09375 53.304688 Z M 81.644531 69.8125 C 81.644531 69.8125 80.265625 74.734375 80.566406 80.917969 L 77.992188 71.671875 C 77.992188 71.671875 72.785156 72.753906 65.601562 66.570312 L 64.40625 76.355469 L 63.746094 65.492188 L 56.683594 73.234375 L 52.855469 72.09375 C 52.257812 80.136719 54.113281 95.625 54.113281 95.625 C 51.179688 85.058594 50.640625 72.152344 50.640625 72.152344 L 48.484375 73.714844 C 48.304688 74.914062 48.246094 76.476562 48.304688 78.277344 L 45.492188 73.414062 L 43.097656 76.296875 L 37.535156 79.65625 C 36.996094 83.5 34.300781 83.320312 34.300781 83.320312 C 33.703125 92.144531 37.355469 108.953125 46.269531 111.59375 L 47.589844 107.210938 C 47.289062 104.089844 49.800781 104.027344 49.800781 104.027344 L 49.382812 91.601562 C 50.042969 97.785156 50.820312 102.886719 50.820312 102.886719 C 51.777344 106.25 58.601562 115.613281 58.601562 115.613281 L 63.328125 117.59375 C 63.628906 113.09375 67.398438 109.910156 67.398438 109.910156 C 66.558594 106.25 66.023438 103.070312 65.722656 100.367188 C 66.621094 102.769531 67.816406 105.347656 69.375 108.171875 L 72.726562 110.273438 C 72.726562 110.273438 76.257812 117.054688 82.898438 121.738281 C 82.898438 121.738281 76.855469 114.652344 73.382812 103.070312 C 73.382812 103.070312 78.949219 115.015625 83.496094 118.554688 C 83.496094 118.554688 83.675781 113.035156 87.6875 110.753906 L 85.53125 95.804688 C 85.472656 95.746094 81.105469 77.917969 81.644531 69.8125 Z M 34.660156 90.941406 L 32.925781 84.28125 L 29.394531 77.257812 L 27.058594 80.015625 C 27.058594 80.015625 26.941406 82.539062 24.726562 85.300781 C 24.726562 85.300781 24.90625 87.699219 25.863281 91.484375 L 22.75 82.117188 C 21.375 80.796875 18.5 77.074219 18.5 77.074219 L 16.644531 78.9375 C 16.644531 78.9375 16.585938 80.558594 15.566406 81.398438 C 14.550781 82.238281 13.714844 82 13.714844 82 C 13.714844 82 13.773438 82.417969 13.832031 83.078125 C 13.234375 81.398438 12.933594 80.078125 12.933594 80.078125 C 11.140625 78.277344 10.898438 76.597656 10.898438 76.597656 L 9.523438 76.894531 C 8.085938 77.554688 6.113281 75.816406 6.113281 75.816406 C 8.207031 82.179688 13.175781 86.679688 13.175781 86.679688 C 12.15625 86.082031 9.464844 83.917969 9.464844 83.917969 C 12.335938 87.582031 14.25 88.660156 14.25 88.660156 L 14.851562 87.101562 C 15.390625 88.722656 16.226562 90.523438 17.421875 92.082031 C 20.65625 96.226562 24.964844 98.144531 24.964844 98.144531 C 23.109375 95.804688 22.75 91.78125 22.75 91.78125 C 24.964844 95.503906 28.078125 98.386719 28.078125 98.386719 C 28.078125 98.386719 27.179688 94.84375 27.359375 92.203125 C 27.359375 92.203125 28.195312 99.765625 35.019531 106.609375 C 35.019531 106.609375 35.257812 104.507812 36.15625 103.070312 C 36.097656 103.007812 34.242188 93.644531 34.660156 90.941406 Z M 251.136719 88.363281 C 251.914062 79.539062 250.777344 75.09375 245.511719 71.3125 L 245.691406 82.777344 C 245.691406 82.777344 244.554688 71.375 242.101562 65.851562 C 242.101562 65.851562 238.570312 71.253906 234.976562 74.554688 L 233.660156 99.347656 L 229.472656 112.371094 C 229.472656 112.371094 229.949219 120.71875 232.285156 123.417969 C 232.285156 123.417969 239.945312 119.097656 243.476562 106.730469 L 242.039062 114.953125 C 242.039062 114.953125 248.324219 106.371094 248.203125 106.128906 C 248.203125 105.710938 250.417969 97.1875 251.136719 88.363281 Z M 286.570312 77.917969 C 287.644531 74.496094 287.707031 71.191406 287.707031 71.191406 L 284.175781 74.074219 L 281.300781 79.238281 C 281.300781 77.675781 281.183594 76.714844 281.183594 76.714844 C 281.183594 76.714844 279.867188 82.957031 277.113281 89.082031 C 277.113281 89.082031 279.6875 77.554688 280.226562 68.851562 C 280.226562 68.851562 278.550781 73.65625 275.078125 73.953125 L 269.332031 78.695312 C 269.332031 78.214844 269.273438 77.738281 269.210938 77.316406 L 267.117188 75.695312 C 267.117188 75.695312 266.21875 88.601562 262.988281 99.046875 C 262.988281 99.046875 265.261719 83.558594 264.902344 75.515625 C 264.902344 75.515625 262.988281 73.59375 261.96875 71.734375 C 260.953125 69.871094 260.953125 65.550781 260.953125 65.550781 L 251.316406 79.835938 L 251.855469 94.304688 C 251.855469 94.304688 250.121094 106.25 248.742188 110.089844 C 248.742188 110.089844 251.617188 116.273438 251.796875 120.71875 L 258.019531 116.695312 C 258.019531 116.695312 265.980469 103.1875 267.117188 99.886719 C 267.117188 99.886719 267.714844 96.765625 268.253906 92.683594 C 268.253906 92.742188 268.671875 102.769531 268.074219 112.492188 C 268.074219 112.492188 275.675781 103.429688 278.847656 94.363281 C 280.285156 90.222656 280.941406 86.082031 281.183594 82.898438 C 281.960938 88.363281 280.523438 92.261719 280.523438 92.261719 L 280.464844 99.167969 L 288.84375 87.761719 C 288.84375 87.761719 291.117188 81.9375 291.894531 75.875 C 292.734375 69.8125 290.460938 66.929688 290.460938 66.929688 C 289.800781 72.394531 286.570312 77.917969 286.570312 77.917969 Z M 224.5625 110.992188 C 224.5625 110.992188 231.804688 97.726562 233.722656 85.71875 C 235.636719 73.714844 234.738281 71.253906 234.738281 71.253906 C 234.738281 71.253906 232.226562 73.714844 229.234375 71.855469 C 226.179688 69.933594 224.625 65.789062 223.90625 63.269531 L 217.261719 60.988281 C 217.261719 60.988281 217.261719 61.109375 217.203125 61.347656 C 217.023438 63.148438 216.304688 72.632812 214.269531 80.859375 C 215.046875 73.714844 215.289062 65.851562 214.269531 58.046875 C 214.269531 58.046875 210.320312 64.410156 207.566406 63.691406 C 207.566406 63.691406 206.128906 69.273438 200.5625 68.492188 C 196.613281 67.890625 194.101562 63.570312 194.101562 63.570312 L 189.3125 60.929688 L 188.953125 75.273438 C 188.355469 65.730469 186.378906 57.207031 184.285156 52.945312 C 184.285156 52.945312 179.976562 61.890625 172.136719 63.507812 L 166.570312 62.1875 L 162.980469 58.949219 L 161.242188 63.871094 C 161.242188 63.871094 162.5 73.472656 160.34375 87.101562 L 159.808594 105.109375 L 162.5 114.59375 L 171 126.960938 C 171 126.960938 174.769531 117.414062 176.503906 107.75 C 176.503906 107.75 175.726562 118.496094 174.648438 124.136719 L 179.855469 114.894531 L 184.703125 109.671875 C 184.703125 109.671875 186.800781 105.167969 188.59375 90.34375 L 188.355469 100.789062 C 188.355469 100.789062 191.347656 77.738281 191.828125 73.414062 C 191.828125 73.414062 192.363281 94.664062 187.757812 111.894531 L 192.425781 119.996094 C 192.425781 119.996094 195.714844 121.675781 196.855469 124.980469 C 196.855469 124.980469 200.085938 124.378906 203.019531 117.355469 C 203.019531 117.355469 205.054688 112.011719 208.164062 108.769531 C 208.164062 108.769531 209.660156 104.507812 211.277344 97.847656 L 211.875 115.015625 L 213.671875 97.664062 L 213.492188 116.996094 C 213.492188 116.996094 216.785156 120.597656 216.722656 125.160156 L 224.984375 120.117188 C 224.984375 120.117188 228.632812 114.292969 231.507812 99.226562 C 231.625 99.40625 226.300781 108.890625 224.5625 110.992188 Z M 159.386719 56.304688 C 159.386719 56.304688 156.695312 59.609375 151.605469 61.769531 L 142.03125 63.929688 L 140.355469 60.808594 C 140.355469 60.808594 133.472656 59.308594 132.035156 58.828125 C 132.035156 58.828125 130.300781 68.914062 130.601562 80.078125 L 129.882812 60.207031 L 125.753906 62.367188 C 125.753906 62.367188 124.914062 64.589844 119.945312 64.710938 C 114.980469 64.832031 112.226562 59.488281 112.226562 59.488281 C 109.472656 60.148438 107.078125 58.167969 107.078125 58.167969 C 105.941406 66.75 106 74.914062 106.660156 82 C 104.207031 74.074219 103.488281 64.53125 103.367188 62.488281 C 103.367188 62.25 103.367188 62.128906 103.367188 62.128906 L 100.613281 64.410156 C 97.980469 68.550781 94.570312 72.273438 94.570312 72.273438 C 89.664062 69.632812 86.492188 63.507812 86.492188 63.507812 C 86.492188 63.507812 83.675781 70.894531 85.054688 82.957031 C 86.429688 95.023438 91.160156 107.992188 91.160156 107.992188 C 89.542969 105.828125 85.53125 95.863281 85.53125 95.863281 C 87.6875 110.992188 93.613281 117.714844 93.613281 117.714844 L 101.632812 123.179688 C 101.753906 118.617188 105.222656 115.195312 105.222656 115.195312 L 105.640625 107.929688 L 109.59375 104.570312 L 109.351562 98.265625 C 110.3125 102.40625 111.148438 104.808594 111.148438 104.808594 C 114.199219 108.050781 116.234375 113.453125 116.234375 113.453125 C 119.050781 120.476562 122.28125 121.136719 122.28125 121.136719 C 123.476562 117.835938 126.769531 116.214844 126.769531 116.214844 L 131.558594 108.171875 C 127.128906 90.882812 127.90625 69.632812 127.90625 69.632812 C 128.324219 73.953125 130.839844 87.761719 130.839844 87.761719 L 130.601562 81.699219 C 131.078125 93.464844 134.609375 108.710938 134.609375 108.710938 L 133.890625 92.503906 C 133.953125 94.125 134.847656 105.410156 142.988281 123.71875 L 149.214844 121.015625 C 149.214844 121.015625 153.28125 114.953125 154.359375 97.964844 L 153.820312 115.675781 L 157.113281 109.613281 L 158.96875 107.871094 C 158.96875 107.871094 156.992188 95.386719 159.386719 82.898438 Z M 159.386719 56.304688 " fill-opacity="1" fill-rule="nonzero"/></g></g></g></g><g clip-path="url(#id5)"><path fill="#1a1815" d="M 133.3125 136.425781 C 139.96875 131.664062 147.195312 126.207031 146.375 114.816406 C 145.074219 114.75 143.753906 114.773438 142.433594 114.324219 C 130.628906 110.300781 122.171875 90.425781 125.421875 75.769531 C 111.195312 90.722656 111.222656 130.675781 133.3125 136.425781 Z M 130.601562 72.085938 C 130.964844 73.976562 129.417969 75.082031 128.875 76.753906 C 125.546875 86.953125 131.382812 102.035156 138.242188 107.9375 C 141.039062 110.347656 144.171875 111.386719 148.347656 112.113281 C 151.765625 117.910156 148.511719 125.523438 145.390625 130.039062 C 143.167969 133.257812 137.425781 139.125 133.066406 139.371094 C 131.039062 139.484375 127.984375 138.390625 125.917969 137.160156 C 118.832031 132.953125 113.15625 120.230469 112.113281 110.148438 C 110.714844 96.660156 116.015625 81.804688 121.726562 75.03125 C 123.519531 72.90625 127.25 69.4375 130.601562 72.085938 " fill-opacity="1" fill-rule="evenodd"/></g><path fill="#f7f330" d="M 130.847656 130.285156 C 130.71875 126.960938 127.558594 124.566406 125.175781 122.671875 C 124.878906 126.421875 127.847656 129.003906 130.847656 130.285156 Z M 134.050781 118.253906 C 133.941406 115.640625 131.179688 113.59375 129.367188 111.867188 C 128.144531 114.855469 131.667969 118.09375 134.050781 118.253906 Z M 124.4375 110.148438 C 125.144531 107.625 123 103.960938 122.464844 101.0625 C 122.136719 101.0625 121.808594 101.0625 121.480469 101.0625 C 121.15625 104.429688 122.214844 108.503906 124.4375 110.148438 Z M 125.421875 75.769531 C 122.171875 90.425781 130.628906 110.300781 142.433594 114.324219 C 143.753906 114.773438 145.074219 114.75 146.375 114.816406 C 147.195312 126.207031 139.96875 131.664062 133.3125 136.425781 C 111.222656 130.675781 111.195312 90.722656 125.421875 75.769531 " fill-opacity="1" fill-rule="evenodd"/><path fill="#1a1815" d="M 121.480469 101.0625 C 121.808594 101.0625 122.136719 101.0625 122.464844 101.0625 C 123 103.960938 125.144531 107.625 124.4375 110.148438 C 122.214844 108.503906 121.15625 104.429688 121.480469 101.0625 " fill-opacity="1" fill-rule="evenodd"/><path fill="#1a1815" d="M 129.367188 111.867188 C 131.179688 113.59375 133.941406 115.640625 134.050781 118.253906 C 131.667969 118.09375 128.144531 114.855469 129.367188 111.867188 " fill-opacity="1" fill-rule="evenodd"/><path fill="#1a1815" d="M 125.175781 122.671875 C 127.558594 124.566406 130.71875 126.960938 130.847656 130.285156 C 127.847656 129.003906 124.878906 126.421875 125.175781 122.671875 " fill-opacity="1" fill-rule="evenodd"/><g clip-path="url(#id6)"><path fill="#1a1815" d="M 241.6875 136.425781 C 235.03125 131.664062 227.800781 126.207031 228.621094 114.816406 C 229.921875 114.75 231.242188 114.773438 232.566406 114.324219 C 244.367188 110.300781 252.824219 90.425781 249.574219 75.769531 C 263.804688 90.722656 263.777344 130.675781 241.6875 136.425781 Z M 244.398438 72.085938 C 244.035156 73.976562 245.578125 75.082031 246.125 76.753906 C 249.453125 86.953125 243.613281 102.035156 236.757812 107.9375 C 233.960938 110.347656 230.824219 111.386719 226.648438 112.113281 C 223.234375 117.910156 226.488281 125.523438 229.609375 130.039062 C 231.832031 133.257812 237.570312 139.125 241.933594 139.371094 C 243.960938 139.484375 247.011719 138.390625 249.082031 137.160156 C 256.164062 132.953125 261.839844 120.230469 262.886719 110.148438 C 264.285156 96.660156 258.984375 81.804688 253.273438 75.03125 C 251.480469 72.90625 247.746094 69.4375 244.398438 72.085938 " fill-opacity="1" fill-rule="evenodd"/></g><path fill="#f7f330" d="M 244.152344 130.285156 C 244.277344 126.960938 247.441406 124.566406 249.820312 122.671875 C 250.121094 126.421875 247.148438 129.003906 244.152344 130.285156 Z M 240.945312 118.253906 C 241.054688 115.640625 243.816406 113.59375 245.628906 111.867188 C 246.855469 114.855469 243.332031 118.09375 240.945312 118.253906 Z M 250.558594 110.148438 C 249.855469 107.625 251.996094 103.960938 252.53125 101.0625 C 252.859375 101.0625 253.191406 101.0625 253.519531 101.0625 C 253.839844 104.429688 252.78125 108.503906 250.558594 110.148438 Z M 249.574219 75.769531 C 252.824219 90.425781 244.367188 110.300781 232.566406 114.324219 C 231.242188 114.773438 229.921875 114.75 228.621094 114.816406 C 227.800781 126.207031 235.03125 131.664062 241.6875 136.425781 C 263.777344 130.675781 263.804688 90.722656 249.574219 75.769531 " fill-opacity="1" fill-rule="evenodd"/><path fill="#1a1815" d="M 253.519531 101.0625 C 253.191406 101.0625 252.859375 101.0625 252.53125 101.0625 C 251.996094 103.960938 249.855469 107.625 250.558594 110.148438 C 252.78125 108.503906 253.839844 104.429688 253.519531 101.0625 " fill-opacity="1" fill-rule="evenodd"/><path fill="#1a1815" d="M 245.628906 111.867188 C 243.816406 113.59375 241.054688 115.640625 240.945312 118.253906 C 243.332031 118.09375 246.855469 114.855469 245.628906 111.867188 " fill-opacity="1" fill-rule="evenodd"/><path fill="#1a1815" d="M 249.820312 122.671875 C 247.441406 124.566406 244.277344 126.960938 244.152344 130.285156 C 247.148438 129.003906 250.121094 126.421875 249.820312 122.671875 " fill-opacity="1" fill-rule="evenodd"/><path fill="#f7f231" d="M 262.65625 167.804688 C 262.65625 208.128906 229.964844 240.824219 189.636719 240.824219 C 149.308594 240.824219 116.617188 208.128906 116.617188 167.804688 C 116.617188 127.476562 149.308594 94.78125 189.636719 94.78125 C 229.964844 94.78125 262.65625 127.476562 262.65625 167.804688 " fill-opacity="1" fill-rule="nonzero"/><path fill="#181415" d="M 256.734375 167.804688 C 256.734375 204.859375 226.695312 234.902344 189.636719 234.902344 C 152.578125 234.902344 122.535156 204.859375 122.535156 167.804688 C 122.535156 130.746094 152.578125 100.703125 189.636719 100.703125 C 226.695312 100.703125 256.734375 130.746094 256.734375 167.804688 " fill-opacity="1" fill-rule="nonzero"/><path fill="#f7f231" d="M 239.746094 137.972656 C 234.210938 148.585938 222.996094 155.65625 222.996094 155.65625 C 222.996094 155.65625 209.921875 159.65625 195.632812 157.8125 L 204.511719 152.804688 L 216.070312 146.289062 C 216.070312 146.289062 225.027344 142.449219 235.132812 139.328125 C 236.660156 138.847656 238.195312 138.390625 239.746094 137.972656 " fill-opacity="1" fill-rule="nonzero"/><path fill="#f7f231" d="M 183.640625 157.8125 C 169.339844 159.65625 156.277344 155.65625 156.277344 155.65625 C 156.277344 155.65625 145.050781 148.585938 139.515625 137.972656 C 141.066406 138.390625 142.617188 138.847656 144.128906 139.328125 C 154.25 142.449219 163.191406 146.289062 163.191406 146.289062 L 174.761719 152.804688 L 183.640625 157.8125 " fill-opacity="1" fill-rule="nonzero"/><path fill="#bbbab8" d="M 249.855469 160.382812 C 248.796875 153.066406 247.332031 148.28125 247.332031 148.28125 C 247.332031 148.28125 244.050781 161.808594 233.800781 169.597656 C 204.359375 174.789062 174.914062 174.789062 145.46875 169.597656 C 135.222656 161.808594 131.941406 148.28125 131.941406 148.28125 C 131.941406 148.28125 130.476562 153.066406 129.414062 160.382812 C 124.179688 196.433594 152.117188 228.992188 188.542969 229.238281 C 189.273438 229.242188 190 229.242188 190.726562 229.238281 C 227.15625 228.992188 255.09375 196.433594 249.855469 160.382812 " fill-opacity="1" fill-rule="nonzero"/><path fill="#d4d4d2" d="M 250.035156 161.65625 C 250.035156 161.65625 249.132812 169.648438 243.753906 180.40625 C 240.984375 177.796875 236.21875 173.492188 236.21875 173.492188 C 236.21875 173.492188 231.914062 190.554688 221.921875 202.082031 C 218.234375 190.402344 210.546875 181.871094 210.546875 181.871094 C 210.546875 181.871094 204.550781 192.398438 200.863281 204.851562 C 193.660156 196.570312 189.636719 185.480469 189.636719 185.480469 C 189.636719 185.480469 185.613281 196.570312 178.410156 204.851562 C 174.71875 192.398438 168.722656 181.871094 168.722656 181.871094 C 168.722656 181.871094 161.039062 190.402344 157.347656 202.082031 C 147.355469 190.554688 143.050781 173.492188 143.050781 173.492188 C 143.050781 173.492188 138.289062 177.796875 135.519531 180.40625 C 130.140625 169.648438 129.238281 161.65625 129.238281 161.65625 C 129.238281 161.65625 132.136719 151.660156 132.136719 147.460938 C 134.699219 159.65625 145.46875 169.597656 145.46875 169.597656 C 145.46875 169.597656 175.210938 175.847656 215.96875 172.261719 C 233.496094 170.519531 233.800781 169.597656 233.800781 169.597656 C 233.800781 169.597656 243.949219 162.832031 246.714844 149.304688 C 248.355469 151.660156 250.035156 161.65625 250.035156 161.65625 " fill-opacity="1" fill-rule="nonzero"/><path fill="#ffffff" d="M 140.335938 181.175781 C 140.335938 181.175781 137.671875 189.886719 146.382812 206.59375 C 157.757812 218.378906 158.066406 216.226562 158.066406 216.226562 C 158.066406 216.226562 159.558594 211.308594 161.578125 208.128906 C 160.117188 214.484375 160.21875 218.277344 160.21875 218.277344 C 160.21875 218.277344 166.777344 222.480469 174.566406 224.628906 C 179.28125 220.734375 179.074219 214.074219 179.074219 214.074219 C 179.074219 214.074219 180 219.8125 180.101562 224.628906 C 189.632812 226.269531 202.953125 224.015625 202.953125 224.015625 C 202.953125 224.015625 203.671875 218.480469 202.953125 212.945312 C 204.390625 219.40625 207.667969 222.480469 207.667969 222.480469 C 207.667969 222.480469 216.484375 219.8125 225.195312 214.074219 C 224.476562 209.667969 222.9375 206.59375 222.9375 206.59375 C 222.9375 206.59375 225.773438 208.949219 227.140625 212.230469 C 238.210938 203.929688 244.972656 184.660156 244.972656 184.660156 C 244.972656 184.660156 241.285156 180.871094 237.59375 178.308594 C 237.59375 178.308594 232.878906 195.21875 221.402344 204.851562 C 217.199219 197.164062 211.28125 190.707031 211.28125 190.707031 C 211.28125 190.707031 207.054688 197.574219 202.441406 210.078125 C 193.320312 206.082031 188.914062 195.523438 188.914062 195.523438 C 188.914062 195.523438 190.144531 203.210938 194.039062 208.746094 C 191.167969 207.207031 186.042969 199.417969 186.042969 199.417969 L 177.949219 210.691406 C 177.949219 210.691406 175.125 201.285156 170.363281 193.578125 C 171.59375 200.238281 172.3125 206.492188 172.3125 206.492188 C 172.3125 206.492188 171.355469 197.265625 167.992188 190.8125 C 163.601562 192.757812 158.476562 206.285156 158.476562 206.285156 C 158.476562 206.285156 143.207031 195.421875 140.335938 181.175781 " fill-opacity="1" fill-rule="nonzero"/><path fill="#ffffff" d="M 132.0625 164.113281 C 132.0625 164.113281 134.214844 171.363281 136.289062 176.15625 C 139.863281 173.605469 142.015625 171.570312 142.015625 171.570312 C 142.015625 171.570312 134.941406 164.421875 132.714844 158.695312 C 134.636719 165.113281 136.789062 168.761719 136.789062 168.761719 C 136.789062 168.761719 134.367188 167.035156 132.0625 164.113281 " fill-opacity="1" fill-rule="nonzero"/><path fill="#ffffff" d="M 145.871094 172.773438 C 145.871094 172.773438 155.863281 175.589844 167.496094 176.15625 C 159.910156 185.890625 158.167969 189.476562 156.683594 196.34375 C 150.175781 184.507812 148.28125 176.71875 148.28125 176.71875 C 148.28125 176.71875 152.175781 183.175781 154.324219 187.171875 C 152.53125 178.359375 145.871094 172.773438 145.871094 172.773438 " fill-opacity="1" fill-rule="nonzero"/><path fill="#ffffff" d="M 170.722656 176.15625 C 170.722656 176.15625 176.667969 189.324219 179.179688 198.292969 C 179.792969 193.527344 178.359375 188.144531 178.359375 188.144531 C 178.359375 188.144531 180.101562 192.449219 180.816406 195.164062 C 185.789062 188.609375 189.066406 176.15625 189.066406 176.15625 C 189.066406 176.15625 179.691406 177.898438 170.722656 176.15625 " fill-opacity="1" fill-rule="nonzero"/><path fill="#ffffff" d="M 190.757812 176.925781 C 190.757812 176.925781 194.039062 188.195312 200.339844 198.652344 C 198.394531 191.578125 197.625 188.042969 197.625 188.042969 L 201.007812 194.910156 C 201.007812 194.910156 205.414062 182.714844 209.871094 175.539062 C 198.496094 176.617188 190.757812 176.925781 190.757812 176.925781 " fill-opacity="1" fill-rule="nonzero"/><path fill="#ffffff" d="M 212.125 177.386719 C 212.125 177.386719 219.855469 187.890625 222.222656 194.859375 C 222.273438 190.914062 220.992188 186.453125 220.992188 186.453125 C 220.992188 186.453125 223.296875 191.5625 224.527344 194.292969 C 232.828125 184.355469 234.726562 171.339844 234.726562 171.339844 C 234.726562 171.339844 222.734375 176.105469 212.125 175.335938 C 217.710938 180.152344 218.789062 185.429688 218.789062 185.429688 C 218.789062 185.429688 216.535156 180.5625 212.125 177.386719 " fill-opacity="1" fill-rule="nonzero"/><path fill="#ffffff" d="M 236.722656 170.519531 L 242.617188 176.15625 C 242.617188 176.15625 246.664062 170.519531 248.097656 162.832031 C 247.023438 157.964844 246.816406 156.015625 246.816406 156.015625 C 246.816406 156.015625 243.230469 165.957031 236.722656 170.519531 " fill-opacity="1" fill-rule="nonzero"/><path fill="#100f0d" d="M 132.082031 152.703125 C 131.625 154.722656 131.089844 157.410156 130.632812 160.5625 C 128.183594 177.40625 133.171875 194.5 144.308594 207.460938 C 155.433594 220.40625 171.558594 227.894531 188.554688 228.007812 C 189.277344 228.015625 189.996094 228.015625 190.71875 228.007812 C 207.710938 227.894531 223.839844 220.40625 234.964844 207.460938 C 246.101562 194.5 251.085938 177.40625 248.640625 160.5625 C 248.183594 157.410156 247.648438 154.722656 247.1875 152.703125 C 245.382812 157.449219 241.558594 165.246094 234.546875 170.574219 L 234.308594 170.757812 L 234.015625 170.808594 C 204.566406 176 174.703125 176 145.257812 170.808594 L 144.964844 170.757812 L 144.726562 170.574219 C 137.714844 165.246094 133.886719 157.449219 132.082031 152.703125 Z M 189.636719 230.472656 C 189.269531 230.472656 188.902344 230.46875 188.535156 230.46875 C 170.832031 230.347656 154.03125 222.546875 142.445312 209.0625 C 130.839844 195.5625 125.648438 177.753906 128.199219 160.207031 C 129.261719 152.878906 130.703125 148.117188 130.765625 147.921875 L 132.078125 143.636719 L 133.136719 147.988281 C 133.167969 148.117188 136.398438 160.984375 145.980469 168.4375 C 174.949219 173.511719 204.324219 173.511719 233.292969 168.4375 C 242.875 160.984375 246.105469 148.117188 246.136719 147.988281 L 247.195312 143.636719 L 248.507812 147.921875 C 248.566406 148.117188 250.011719 152.878906 251.074219 160.207031 C 253.625 177.753906 248.433594 195.5625 236.832031 209.0625 C 225.242188 222.546875 208.441406 230.347656 190.738281 230.46875 C 190.371094 230.46875 190.003906 230.472656 189.636719 230.472656 " fill-opacity="1" fill-rule="nonzero"/><path fill="#100f0d" d="M 250.550781 161.714844 C 250.335938 163.414062 249.988281 165.03125 249.585938 166.660156 C 249.183594 168.277344 248.710938 169.882812 248.1875 171.46875 C 247.125 174.632812 245.859375 177.726562 244.398438 180.734375 L 243.984375 181.589844 L 243.253906 180.933594 L 235.664062 174.105469 L 237.023438 173.695312 C 236.34375 176.355469 235.507812 178.914062 234.5625 181.460938 C 233.621094 184 232.566406 186.5 231.40625 188.953125 C 230.261719 191.414062 228.929688 193.792969 227.515625 196.121094 C 226.089844 198.445312 224.457031 200.648438 222.707031 202.765625 L 221.542969 204.171875 L 220.933594 202.398438 C 220.316406 200.597656 219.667969 198.804688 218.855469 197.074219 C 218.078125 195.332031 217.199219 193.632812 216.242188 191.980469 C 215.289062 190.324219 214.269531 188.703125 213.175781 187.136719 C 212.089844 185.574219 210.914062 184.023438 209.703125 182.632812 L 211.535156 182.433594 C 209.570312 186.011719 207.789062 189.773438 206.191406 193.566406 C 204.578125 197.367188 203.179688 201.25 202 205.1875 L 201.371094 207.285156 L 199.96875 205.628906 C 198.726562 204.160156 197.527344 202.65625 196.453125 201.074219 C 195.371094 199.496094 194.34375 197.886719 193.410156 196.226562 C 192.464844 194.570312 191.578125 192.886719 190.757812 191.167969 C 189.933594 189.445312 189.175781 187.726562 188.480469 185.902344 L 190.792969 185.902344 C 190.097656 187.730469 189.335938 189.445312 188.515625 191.171875 C 187.695312 192.886719 186.808594 194.570312 185.863281 196.226562 C 184.929688 197.886719 183.902344 199.5 182.820312 201.074219 C 181.746094 202.65625 180.546875 204.164062 179.304688 205.628906 L 177.898438 207.289062 L 177.273438 205.1875 C 176.09375 201.25 174.691406 197.367188 173.082031 193.570312 C 171.480469 189.773438 169.699219 186.011719 167.734375 182.433594 L 169.570312 182.632812 C 168.355469 184.023438 167.183594 185.574219 166.097656 187.136719 C 165 188.703125 163.988281 190.328125 163.035156 191.980469 C 162.074219 193.636719 161.195312 195.335938 160.417969 197.074219 C 159.609375 198.804688 158.957031 200.597656 158.339844 202.398438 L 157.730469 204.179688 L 156.5625 202.765625 C 154.8125 200.648438 153.179688 198.445312 151.757812 196.121094 C 150.339844 193.792969 149.011719 191.414062 147.867188 188.953125 C 146.703125 186.5 145.648438 184 144.707031 181.460938 C 143.765625 178.914062 142.925781 176.355469 142.246094 173.695312 L 143.609375 174.109375 L 136.019531 180.933594 L 135.289062 181.59375 L 134.871094 180.734375 C 133.410156 177.726562 132.144531 174.632812 131.082031 171.46875 C 130.5625 169.882812 130.089844 168.277344 129.683594 166.660156 C 129.285156 165.03125 128.9375 163.414062 128.722656 161.714844 L 129.753906 161.597656 C 129.984375 163.179688 130.363281 164.796875 130.789062 166.371094 C 131.21875 167.953125 131.714844 169.515625 132.257812 171.0625 C 133.367188 174.148438 134.675781 177.164062 136.167969 180.082031 L 135.019531 179.878906 L 142.496094 172.871094 L 143.480469 171.945312 L 143.859375 173.289062 C 144.574219 175.8125 145.445312 178.347656 146.386719 180.828125 C 147.339844 183.308594 148.40625 185.746094 149.566406 188.132812 C 150.714844 190.523438 152.039062 192.824219 153.4375 195.0625 C 154.84375 197.300781 156.441406 199.398438 158.136719 201.402344 L 156.355469 201.769531 C 156.976562 199.882812 157.632812 198.007812 158.453125 196.199219 C 159.242188 194.382812 160.132812 192.609375 161.105469 190.886719 C 162.066406 189.15625 163.121094 187.480469 164.242188 185.851562 C 165.375 184.21875 166.542969 182.65625 167.878906 181.109375 L 168.925781 179.898438 L 169.714844 181.308594 C 170.753906 183.171875 171.699219 185.03125 172.617188 186.925781 C 173.53125 188.816406 174.402344 190.726562 175.222656 192.660156 C 176.878906 196.523438 178.324219 200.480469 179.546875 204.515625 L 177.515625 204.070312 C 178.6875 202.675781 179.824219 201.238281 180.847656 199.714844 C 181.882812 198.199219 182.863281 196.640625 183.761719 195.03125 C 184.671875 193.425781 185.523438 191.789062 186.3125 190.121094 C 187.101562 188.460938 187.84375 186.742188 188.480469 185.0625 L 189.640625 182 L 190.792969 185.0625 C 191.421875 186.742188 192.171875 188.460938 192.957031 190.121094 C 193.746094 191.789062 194.601562 193.429688 195.507812 195.03125 C 196.40625 196.640625 197.390625 198.199219 198.421875 199.71875 C 199.449219 201.242188 200.585938 202.675781 201.757812 204.074219 L 199.726562 204.515625 C 200.949219 200.480469 202.394531 196.523438 204.050781 192.660156 C 204.875 190.726562 205.742188 188.816406 206.65625 186.925781 C 207.574219 185.03125 208.515625 183.171875 209.558594 181.308594 L 210.347656 179.898438 L 211.390625 181.109375 C 212.730469 182.65625 213.894531 184.21875 215.027344 185.851562 C 216.152344 187.480469 217.203125 189.15625 218.164062 190.886719 C 219.136719 192.609375 220.027344 194.382812 220.816406 196.203125 C 221.632812 198.007812 222.292969 199.882812 222.914062 201.773438 L 221.140625 201.40625 C 222.832031 199.402344 224.429688 197.304688 225.835938 195.066406 C 227.234375 192.824219 228.558594 190.523438 229.707031 188.132812 C 230.871094 185.746094 231.933594 183.308594 232.886719 180.828125 C 233.828125 178.347656 234.703125 175.8125 235.414062 173.289062 L 235.792969 171.949219 L 236.777344 172.875 L 244.25 179.882812 L 243.105469 180.085938 C 244.597656 177.164062 245.90625 174.148438 247.015625 171.0625 C 247.558594 169.515625 248.054688 167.953125 248.484375 166.371094 C 248.90625 164.796875 249.289062 163.179688 249.519531 161.597656 L 250.550781 161.714844 " fill-opacity="1" fill-rule="nonzero"/><path fill="#100f0d" d="M 195.632812 157.8125 C 196.238281 157.867188 196.839844 157.890625 197.398438 157.902344 C 197.953125 157.921875 198.492188 157.9375 199.082031 157.9375 C 200.230469 157.964844 201.375 157.972656 202.523438 157.925781 C 204.8125 157.871094 207.09375 157.667969 209.359375 157.394531 C 211.628906 157.140625 213.882812 156.773438 216.113281 156.320312 C 218.339844 155.882812 220.582031 155.347656 222.699219 154.6875 L 222.453125 154.800781 C 224.066406 153.6875 225.6875 152.433594 227.207031 151.128906 C 228.738281 149.820312 230.183594 148.417969 231.582031 146.980469 C 232.988281 145.550781 234.269531 144.011719 235.472656 142.425781 C 236.6875 140.839844 237.699219 139.132812 238.667969 137.414062 L 240.074219 139.15625 C 236.066406 140.230469 232.113281 141.515625 228.167969 142.839844 C 224.230469 144.179688 220.304688 145.617188 216.4375 147.125 L 216.527344 147.078125 C 214.867188 147.96875 213.203125 148.84375 211.507812 149.699219 L 206.363281 152.28125 C 202.84375 154.007812 199.289062 155.84375 195.632812 157.8125 Z M 195.632812 157.8125 C 198.789062 155.9375 202.050781 153.929688 205.34375 151.808594 C 206.992188 150.75 208.710938 149.691406 210.421875 148.628906 C 212.136719 147.5625 213.882812 146.515625 215.625 145.484375 L 215.65625 145.464844 L 215.714844 145.4375 C 219.5625 143.703125 223.457031 142.152344 227.410156 140.695312 C 231.347656 139.222656 235.367188 137.957031 239.429688 136.800781 L 242.191406 136.019531 L 240.832031 138.546875 C 239.828125 140.414062 238.699219 142.21875 237.40625 143.882812 C 236.121094 145.550781 234.757812 147.148438 233.277344 148.632812 C 231.808594 150.125 230.242188 151.511719 228.628906 152.832031 C 226.996094 154.144531 225.351562 155.382812 223.535156 156.515625 L 223.402344 156.597656 L 223.292969 156.628906 C 220.980469 157.234375 218.714844 157.660156 216.40625 158.011719 C 214.105469 158.351562 211.785156 158.5625 209.46875 158.679688 C 207.148438 158.800781 204.824219 158.769531 202.511719 158.632812 C 201.355469 158.574219 200.203125 158.46875 199.054688 158.335938 C 197.914062 158.246094 196.664062 157.921875 195.632812 157.8125 " fill-opacity="1" fill-rule="nonzero"/><path fill="#100f0d" d="M 183.640625 157.8125 C 182.605469 157.921875 181.355469 158.246094 180.21875 158.335938 C 179.070312 158.46875 177.917969 158.574219 176.761719 158.632812 C 174.449219 158.769531 172.125 158.800781 169.804688 158.679688 C 167.488281 158.5625 165.167969 158.351562 162.867188 158.011719 C 160.554688 157.660156 158.292969 157.234375 155.980469 156.628906 L 155.867188 156.597656 L 155.734375 156.515625 C 153.921875 155.382812 152.277344 154.144531 150.644531 152.832031 C 149.027344 151.511719 147.464844 150.125 145.996094 148.632812 C 144.515625 147.148438 143.152344 145.550781 141.867188 143.882812 C 140.574219 142.21875 139.445312 140.414062 138.4375 138.546875 L 137.082031 136.019531 L 139.84375 136.800781 C 143.90625 137.957031 147.921875 139.222656 151.863281 140.695312 C 155.8125 142.152344 159.707031 143.703125 163.554688 145.4375 L 163.617188 145.464844 L 163.644531 145.484375 C 165.390625 146.515625 167.136719 147.5625 168.847656 148.628906 C 170.558594 149.691406 172.277344 150.75 173.925781 151.808594 C 177.222656 153.929688 180.484375 155.9375 183.640625 157.8125 Z M 183.640625 157.8125 C 179.980469 155.84375 176.429688 154.007812 172.90625 152.28125 L 167.765625 149.699219 C 166.070312 148.84375 164.40625 147.96875 162.746094 147.078125 L 162.835938 147.125 C 158.96875 145.617188 155.042969 144.179688 151.105469 142.839844 C 147.160156 141.515625 143.203125 140.230469 139.199219 139.15625 L 140.601562 137.414062 C 141.570312 139.132812 142.585938 140.839844 143.800781 142.425781 C 145 144.011719 146.285156 145.550781 147.691406 146.980469 C 149.089844 148.417969 150.535156 149.820312 152.066406 151.128906 C 153.585938 152.433594 155.207031 153.6875 156.820312 154.800781 L 156.574219 154.6875 C 158.6875 155.347656 160.933594 155.882812 163.160156 156.320312 C 165.390625 156.773438 167.644531 157.140625 169.910156 157.394531 C 172.179688 157.667969 174.460938 157.871094 176.75 157.925781 C 177.898438 157.972656 179.042969 157.964844 180.191406 157.9375 C 180.777344 157.9375 181.320312 157.921875 181.875 157.902344 C 182.433594 157.890625 183.035156 157.867188 183.640625 157.8125 " fill-opacity="1" fill-rule="nonzero"/><path fill="#bbbab8" d="M 154.078125 129.371094 C 156.527344 130.648438 158.765625 132.058594 161.003906 133.425781 C 163.230469 134.804688 165.410156 136.1875 167.617188 137.417969 C 168.71875 138.070312 169.734375 138.566406 170.933594 139.058594 L 174.519531 140.574219 C 176.929688 141.582031 179.316406 142.597656 181.902344 143.515625 C 179.175781 144.140625 176.367188 143.835938 173.6875 143.351562 C 172.335938 143.105469 171.027344 142.738281 169.71875 142.339844 C 169.050781 142.101562 168.386719 141.925781 167.722656 141.613281 C 167.058594 141.296875 166.40625 140.972656 165.8125 140.636719 C 163.378906 139.269531 161.207031 137.578125 159.230469 135.710938 C 157.277344 133.816406 155.472656 131.765625 154.078125 129.371094 " fill-opacity="1" fill-rule="nonzero"/><path fill="#bbbab8" d="M 225.195312 129.371094 C 223.800781 131.765625 221.996094 133.816406 220.042969 135.710938 C 218.066406 137.578125 215.894531 139.269531 213.460938 140.636719 C 212.863281 140.972656 212.214844 141.296875 211.550781 141.613281 C 210.886719 141.925781 210.222656 142.101562 209.554688 142.339844 C 208.246094 142.738281 206.933594 143.105469 205.585938 143.351562 C 202.90625 143.835938 200.097656 144.140625 197.367188 143.515625 C 199.953125 142.597656 202.34375 141.582031 204.75 140.574219 L 208.339844 139.058594 C 209.535156 138.566406 210.550781 138.070312 211.652344 137.417969 C 213.859375 136.1875 216.042969 134.804688 218.269531 133.425781 C 220.507812 132.058594 222.746094 130.648438 225.195312 129.371094 " fill-opacity="1" fill-rule="nonzero"/><g clip-path="url(#id7)"><path fill="#100f0d" d="M 189.636719 96.011719 C 150.050781 96.011719 117.84375 128.21875 117.84375 167.804688 C 117.84375 207.386719 150.050781 239.59375 189.636719 239.59375 C 229.222656 239.59375 261.425781 207.386719 261.425781 167.804688 C 261.425781 128.21875 229.222656 96.011719 189.636719 96.011719 Z M 189.636719 242.054688 C 148.695312 242.054688 115.386719 208.746094 115.386719 167.804688 C 115.386719 126.859375 148.695312 93.554688 189.636719 93.554688 C 230.578125 93.554688 263.886719 126.859375 263.886719 167.804688 C 263.886719 208.746094 230.578125 242.054688 189.636719 242.054688 " fill-opacity="1" fill-rule="nonzero"/></g><g fill="#f7f330" fill-opacity="1"><g transform="translate(133.569617, 285.404056)"><g><path d="M 9.171875 0.296875 C 6.210938 0.296875 4.078125 -0.429688 2.765625 -1.890625 C 1.453125 -3.359375 0.796875 -5.722656 0.796875 -8.984375 L 0.796875 -12.171875 L 7.203125 -12.171875 L 7.203125 -8.109375 C 7.203125 -6.492188 7.71875 -5.6875 8.75 -5.6875 C 9.332031 -5.6875 9.738281 -5.851562 9.96875 -6.1875 C 10.195312 -6.53125 10.3125 -7.109375 10.3125 -7.921875 C 10.3125 -8.984375 10.179688 -9.859375 9.921875 -10.546875 C 9.671875 -11.242188 9.347656 -11.828125 8.953125 -12.296875 C 8.566406 -12.765625 7.867188 -13.492188 6.859375 -14.484375 L 4.0625 -17.28125 C 1.882812 -19.40625 0.796875 -21.753906 0.796875 -24.328125 C 0.796875 -27.109375 1.429688 -29.222656 2.703125 -30.671875 C 3.984375 -32.128906 5.847656 -32.859375 8.296875 -32.859375 C 11.234375 -32.859375 13.34375 -32.082031 14.625 -30.53125 C 15.914062 -28.976562 16.5625 -26.546875 16.5625 -23.234375 L 9.9375 -23.234375 L 9.890625 -25.46875 C 9.890625 -25.90625 9.769531 -26.25 9.53125 -26.5 C 9.289062 -26.75 8.957031 -26.875 8.53125 -26.875 C 8.019531 -26.875 7.640625 -26.734375 7.390625 -26.453125 C 7.140625 -26.179688 7.015625 -25.804688 7.015625 -25.328125 C 7.015625 -24.265625 7.617188 -23.164062 8.828125 -22.03125 L 12.625 -18.390625 C 13.507812 -17.523438 14.238281 -16.707031 14.8125 -15.9375 C 15.394531 -15.164062 15.863281 -14.253906 16.21875 -13.203125 C 16.570312 -12.160156 16.75 -10.914062 16.75 -9.46875 C 16.75 -6.257812 16.160156 -3.828125 14.984375 -2.171875 C 13.816406 -0.523438 11.878906 0.296875 9.171875 0.296875 Z M 9.171875 0.296875 "/></g></g></g><g fill="#f7f330" fill-opacity="1"><g transform="translate(151.042561, 285.404056)"><g><path d="M 1.4375 0 L 1.4375 -32.5625 L 7.953125 -32.5625 L 7.953125 -5.53125 L 14.671875 -5.53125 L 14.671875 0 Z M 1.4375 0 "/></g></g></g><g fill="#f7f330" fill-opacity="1"><g transform="translate(166.08976, 285.404056)"><g><path d="M 1.140625 0 L 1.140625 -32.5625 L 7.421875 -32.5625 L 7.421875 0 Z M 1.140625 0 "/></g></g></g><g fill="#f7f330" fill-opacity="1"><g transform="translate(174.693572, 285.404056)"><g><path d="M 1.4375 0 L 1.4375 -32.5625 L 8.15625 -32.5625 L 11.140625 -16.984375 L 11.140625 -32.5625 L 17.4375 -32.5625 L 17.4375 0 L 11.0625 0 L 7.8125 -16.296875 L 7.8125 0 Z M 1.4375 0 "/></g></g></g><g fill="#f7f330" fill-opacity="1"><g transform="translate(193.568898, 285.404056)"><g><path d="M 8.15625 0.296875 C 5.800781 0.296875 4.046875 -0.523438 2.890625 -2.171875 C 1.742188 -3.828125 1.171875 -6.335938 1.171875 -9.703125 L 1.171875 -23.734375 C 1.171875 -26.734375 1.835938 -29.003906 3.171875 -30.546875 C 4.515625 -32.085938 6.515625 -32.859375 9.171875 -32.859375 C 11.316406 -32.859375 12.984375 -32.425781 14.171875 -31.5625 C 15.359375 -30.707031 16.179688 -29.457031 16.640625 -27.8125 C 17.097656 -26.175781 17.328125 -24.070312 17.328125 -21.5 L 10.953125 -21.5 L 10.953125 -24.40625 C 10.953125 -25.195312 10.84375 -25.804688 10.625 -26.234375 C 10.414062 -26.660156 10.03125 -26.875 9.46875 -26.875 C 8.238281 -26.875 7.625 -26.066406 7.625 -24.453125 L 7.625 -8.6875 C 7.625 -7.695312 7.75 -6.945312 8 -6.4375 C 8.25 -5.9375 8.691406 -5.6875 9.328125 -5.6875 C 9.953125 -5.6875 10.390625 -5.9375 10.640625 -6.4375 C 10.898438 -6.945312 11.03125 -7.695312 11.03125 -8.6875 L 11.03125 -13.34375 L 9.28125 -13.34375 L 9.28125 -18.953125 L 17.25 -18.953125 L 17.25 0 L 14.625 0 L 13.53125 -2.734375 C 12.363281 -0.710938 10.570312 0.296875 8.15625 0.296875 Z M 8.15625 0.296875 "/></g></g></g><g fill="#f7f330" fill-opacity="1"><g transform="translate(211.951491, 285.404056)"><g><path d="M 1.4375 0 L 1.4375 -32.5625 L 14.484375 -32.5625 L 14.484375 -26.265625 L 8.078125 -26.265625 L 8.078125 -19.9375 L 14.21875 -19.9375 L 14.21875 -13.796875 L 8.078125 -13.796875 L 8.078125 -6.328125 L 14.890625 -6.328125 L 14.890625 0 Z M 1.4375 0 "/></g></g></g><g fill="#f7f330" fill-opacity="1"><g transform="translate(227.567214, 285.404056)"><g><path d="M 1.4375 -32.5625 L 11.453125 -32.5625 C 13.035156 -32.5625 14.265625 -32.203125 15.140625 -31.484375 C 16.015625 -30.765625 16.601562 -29.753906 16.90625 -28.453125 C 17.207031 -27.148438 17.359375 -25.488281 17.359375 -23.46875 C 17.359375 -21.625 17.117188 -20.179688 16.640625 -19.140625 C 16.160156 -18.109375 15.328125 -17.390625 14.140625 -16.984375 C 15.128906 -16.773438 15.84375 -16.28125 16.28125 -15.5 C 16.71875 -14.71875 16.9375 -13.65625 16.9375 -12.3125 L 16.875 0 L 10.5 0 L 10.5 -12.734375 C 10.5 -13.640625 10.320312 -14.21875 9.96875 -14.46875 C 9.613281 -14.726562 8.96875 -14.859375 8.03125 -14.859375 L 8.03125 0 L 1.4375 0 Z M 9.625 -20.5 C 10.539062 -20.5 11 -21.488281 11 -23.46875 C 11 -24.320312 10.957031 -24.960938 10.875 -25.390625 C 10.800781 -25.828125 10.660156 -26.125 10.453125 -26.28125 C 10.253906 -26.445312 9.96875 -26.53125 9.59375 -26.53125 L 8.078125 -26.53125 L 8.078125 -20.5 Z M 9.625 -20.5 "/></g></g></g><g fill="#fdfdfd" fill-opacity="1"><g transform="translate(140.407158, 309.393028)"><g><path d="M 7.53125 0.1875 C 6.25 0.1875 5.09375 -0.09375 4.0625 -0.65625 C 3.039062 -1.21875 2.238281 -1.988281 1.65625 -2.96875 C 1.082031 -3.957031 0.796875 -5.066406 0.796875 -6.296875 C 0.796875 -7.535156 1.085938 -8.644531 1.671875 -9.625 C 2.265625 -10.613281 3.070312 -11.382812 4.09375 -11.9375 C 5.125 -12.5 6.273438 -12.78125 7.546875 -12.78125 C 8.578125 -12.78125 9.515625 -12.597656 10.359375 -12.234375 C 11.210938 -11.878906 11.9375 -11.359375 12.53125 -10.671875 L 11.015625 -9.25 C 10.097656 -10.238281 8.976562 -10.734375 7.65625 -10.734375 C 6.789062 -10.734375 6.015625 -10.539062 5.328125 -10.15625 C 4.640625 -9.78125 4.101562 -9.253906 3.71875 -8.578125 C 3.34375 -7.910156 3.15625 -7.148438 3.15625 -6.296875 C 3.15625 -5.441406 3.34375 -4.675781 3.71875 -4 C 4.101562 -3.332031 4.640625 -2.8125 5.328125 -2.4375 C 6.015625 -2.0625 6.789062 -1.875 7.65625 -1.875 C 8.976562 -1.875 10.097656 -2.367188 11.015625 -3.359375 L 12.53125 -1.921875 C 11.9375 -1.242188 11.210938 -0.722656 10.359375 -0.359375 C 9.503906 0.00390625 8.5625 0.1875 7.53125 0.1875 Z M 7.53125 0.1875 "/></g></g></g><g fill="#fdfdfd" fill-opacity="1"><g transform="translate(157.705122, 309.393028)"><g><path d="M 7.578125 0.1875 C 6.296875 0.1875 5.140625 -0.09375 4.109375 -0.65625 C 3.078125 -1.21875 2.265625 -1.992188 1.671875 -2.984375 C 1.085938 -3.972656 0.796875 -5.078125 0.796875 -6.296875 C 0.796875 -7.523438 1.085938 -8.632812 1.671875 -9.625 C 2.265625 -10.613281 3.078125 -11.382812 4.109375 -11.9375 C 5.140625 -12.5 6.296875 -12.78125 7.578125 -12.78125 C 8.859375 -12.78125 10.015625 -12.5 11.046875 -11.9375 C 12.078125 -11.382812 12.882812 -10.613281 13.46875 -9.625 C 14.0625 -8.644531 14.359375 -7.535156 14.359375 -6.296875 C 14.359375 -5.066406 14.0625 -3.957031 13.46875 -2.96875 C 12.882812 -1.988281 12.078125 -1.21875 11.046875 -0.65625 C 10.015625 -0.09375 8.859375 0.1875 7.578125 0.1875 Z M 7.578125 -1.875 C 8.421875 -1.875 9.175781 -2.0625 9.84375 -2.4375 C 10.519531 -2.8125 11.046875 -3.335938 11.421875 -4.015625 C 11.804688 -4.703125 12 -5.460938 12 -6.296875 C 12 -7.140625 11.804688 -7.898438 11.421875 -8.578125 C 11.046875 -9.253906 10.519531 -9.78125 9.84375 -10.15625 C 9.175781 -10.539062 8.421875 -10.734375 7.578125 -10.734375 C 6.734375 -10.734375 5.972656 -10.539062 5.296875 -10.15625 C 4.628906 -9.78125 4.101562 -9.253906 3.71875 -8.578125 C 3.34375 -7.898438 3.15625 -7.140625 3.15625 -6.296875 C 3.15625 -5.460938 3.34375 -4.703125 3.71875 -4.015625 C 4.101562 -3.335938 4.628906 -2.8125 5.296875 -2.4375 C 5.972656 -2.0625 6.734375 -1.875 7.578125 -1.875 Z M 7.578125 -1.875 "/></g></g></g><g fill="#fdfdfd" fill-opacity="1"><g transform="translate(177.073082, 309.393028)"><g><path d="M 1.6875 -12.59375 L 7.203125 -12.59375 C 8.546875 -12.59375 9.738281 -12.332031 10.78125 -11.8125 C 11.820312 -11.289062 12.628906 -10.550781 13.203125 -9.59375 C 13.785156 -8.644531 14.078125 -7.546875 14.078125 -6.296875 C 14.078125 -5.046875 13.785156 -3.941406 13.203125 -2.984375 C 12.628906 -2.035156 11.820312 -1.300781 10.78125 -0.78125 C 9.738281 -0.257812 8.546875 0 7.203125 0 L 1.6875 0 Z M 7.09375 -1.984375 C 8.019531 -1.984375 8.832031 -2.160156 9.53125 -2.515625 C 10.226562 -2.867188 10.765625 -3.367188 11.140625 -4.015625 C 11.523438 -4.671875 11.71875 -5.429688 11.71875 -6.296875 C 11.71875 -7.160156 11.523438 -7.921875 11.140625 -8.578125 C 10.765625 -9.234375 10.226562 -9.738281 9.53125 -10.09375 C 8.832031 -10.445312 8.019531 -10.625 7.09375 -10.625 L 4.03125 -10.625 L 4.03125 -1.984375 Z M 7.09375 -1.984375 "/></g></g></g><g fill="#fdfdfd" fill-opacity="1"><g transform="translate(196.153042, 309.393028)"><g><path d="M 1.6875 -12.59375 L 4.03125 -12.59375 L 4.03125 0 L 1.6875 0 Z M 1.6875 -12.59375 "/></g></g></g><g fill="#fdfdfd" fill-opacity="1"><g transform="translate(206.107021, 309.393028)"><g><path d="M 12.890625 -12.59375 L 12.890625 0 L 10.96875 0 L 4.015625 -8.53125 L 4.015625 0 L 1.6875 0 L 1.6875 -12.59375 L 3.625 -12.59375 L 10.5625 -4.0625 L 10.5625 -12.59375 Z M 12.890625 -12.59375 "/></g></g></g><g fill="#fdfdfd" fill-opacity="1"><g transform="translate(224.898974, 309.393028)"><g><path d="M 10.296875 -6.4375 L 12.515625 -6.4375 L 12.515625 -1.421875 C 11.859375 -0.898438 11.097656 -0.5 10.234375 -0.21875 C 9.378906 0.0507812 8.492188 0.1875 7.578125 0.1875 C 6.296875 0.1875 5.140625 -0.09375 4.109375 -0.65625 C 3.078125 -1.21875 2.265625 -1.988281 1.671875 -2.96875 C 1.085938 -3.957031 0.796875 -5.066406 0.796875 -6.296875 C 0.796875 -7.535156 1.085938 -8.644531 1.671875 -9.625 C 2.265625 -10.613281 3.078125 -11.382812 4.109375 -11.9375 C 5.148438 -12.5 6.316406 -12.78125 7.609375 -12.78125 C 8.671875 -12.78125 9.632812 -12.601562 10.5 -12.25 C 11.363281 -11.90625 12.085938 -11.398438 12.671875 -10.734375 L 11.203125 -9.28125 C 10.234375 -10.25 9.070312 -10.734375 7.71875 -10.734375 C 6.832031 -10.734375 6.039062 -10.546875 5.34375 -10.171875 C 4.65625 -9.796875 4.117188 -9.269531 3.734375 -8.59375 C 3.347656 -7.925781 3.15625 -7.160156 3.15625 -6.296875 C 3.15625 -5.460938 3.347656 -4.707031 3.734375 -4.03125 C 4.117188 -3.363281 4.65625 -2.835938 5.34375 -2.453125 C 6.039062 -2.066406 6.828125 -1.875 7.703125 -1.875 C 8.691406 -1.875 9.554688 -2.085938 10.296875 -2.515625 Z M 10.296875 -6.4375 "/></g></g></g></svg>