<svg xmlns="http://www.w3.org/2000/svg" xmlns:xlink="http://www.w3.org/1999/xlink" width="500" zoomAndPan="magnify" viewBox="0 0 375 374.999991" height="500" preserveAspectRatio="xMidYMid meet" version="1.0"><defs><g/></defs><rect x="-37.5" width="450" fill="#ffffff" y="-37.499999" height="449.999989" fill-opacity="1"/><rect x="-37.5" width="450" fill="#ffffff" y="-37.499999" height="449.999989" fill-opacity="1"/><rect x="-37.5" width="450" fill="#242424" y="-37.499999" height="449.999989" fill-opacity="1"/><g fill="#d6cb9b" fill-opacity="1"><g transform="translate(76.746947, 196.386496)"><g><path d="M 9.59375 -2.578125 C 9.695312 -1.898438 10.125 -1.285156 10.875 -0.734375 C 11.625 -0.191406 12.671875 0.125 14.015625 0.21875 C 12.335938 0.125 10.757812 -0.179688 9.28125 -0.703125 C 7.800781 -1.222656 6.507812 -1.890625 5.40625 -2.703125 C 4.300781 -3.515625 3.414062 -4.460938 2.75 -5.546875 C 2.09375 -6.628906 1.765625 -7.796875 1.765625 -9.046875 C 1.753906 -10.585938 2.285156 -11.898438 3.359375 -12.984375 C 4.441406 -14.078125 5.753906 -14.628906 7.296875 -14.640625 C 8.066406 -14.640625 8.800781 -14.5 9.5 -14.21875 C 10.195312 -13.9375 10.800781 -13.539062 11.3125 -13.03125 C 11.820312 -12.53125 12.222656 -11.941406 12.515625 -11.265625 C 12.804688 -10.597656 12.957031 -9.878906 12.96875 -9.109375 C 12.96875 -8.242188 12.785156 -7.4375 12.421875 -6.6875 C 12.066406 -5.9375 11.578125 -5.296875 10.953125 -4.765625 C 10.578125 -4.421875 10.242188 -4.066406 9.953125 -3.703125 C 9.671875 -3.335938 9.550781 -2.960938 9.59375 -2.578125 Z M 29.015625 -9.921875 C 29.109375 -8.472656 28.8125 -7.132812 28.125 -5.90625 C 27.4375 -4.675781 26.457031 -3.609375 25.1875 -2.703125 C 23.914062 -1.804688 22.4375 -1.085938 20.75 -0.546875 C 19.0625 -0.00390625 17.273438 0.269531 15.390625 0.28125 C 16.691406 0.269531 17.796875 -0.265625 18.703125 -1.328125 C 19.617188 -2.390625 20.070312 -3.570312 20.0625 -4.875 C 20.0625 -6.082031 19.609375 -7.25 18.703125 -8.375 C 17.804688 -9.5 16.664062 -10.625 15.28125 -11.75 C 13.90625 -12.882812 12.429688 -14.046875 10.859375 -15.234375 C 9.285156 -16.429688 7.8125 -17.675781 6.4375 -18.96875 C 5.0625 -20.269531 3.921875 -21.640625 3.015625 -23.078125 C 2.117188 -24.515625 1.664062 -26.078125 1.65625 -27.765625 C 1.644531 -29.210938 2.019531 -30.46875 2.78125 -31.53125 C 3.550781 -32.59375 4.523438 -33.476562 5.703125 -34.1875 C 6.878906 -34.894531 8.1875 -35.421875 9.625 -35.765625 C 11.070312 -36.109375 12.46875 -36.285156 13.8125 -36.296875 C 14.25 -36.296875 14.644531 -36.296875 15 -36.296875 C 15.363281 -36.304688 15.738281 -36.257812 16.125 -36.15625 C 14.832031 -36.34375 13.71875 -36.035156 12.78125 -35.234375 C 11.84375 -34.429688 11.378906 -33.238281 11.390625 -31.65625 C 11.398438 -30.351562 11.816406 -29.148438 12.640625 -28.046875 C 13.460938 -26.941406 14.503906 -25.859375 15.765625 -24.796875 C 17.023438 -23.742188 18.390625 -22.679688 19.859375 -21.609375 C 21.335938 -20.535156 22.726562 -19.410156 24.03125 -18.234375 C 25.34375 -17.054688 26.460938 -15.785156 27.390625 -14.421875 C 28.316406 -13.054688 28.859375 -11.554688 29.015625 -9.921875 Z M 26.546875 -23.625 C 26.335938 -24.6875 26.023438 -25.878906 25.609375 -27.203125 C 25.203125 -28.535156 24.617188 -29.800781 23.859375 -31 C 23.097656 -32.195312 22.148438 -33.257812 21.015625 -34.1875 C 19.878906 -35.125 18.492188 -35.757812 16.859375 -36.09375 C 17.628906 -35.945312 18.34375 -35.78125 19 -35.59375 C 19.65625 -35.40625 20.269531 -35.21875 20.84375 -35.03125 C 21.425781 -34.84375 21.992188 -34.695312 22.546875 -34.59375 C 23.097656 -34.5 23.6875 -34.484375 24.3125 -34.546875 C 24.695312 -34.597656 25.117188 -34.691406 25.578125 -34.828125 C 26.035156 -34.972656 26.335938 -35.144531 26.484375 -35.34375 Z M 26.546875 -23.625 "/></g></g></g><g fill="#d6cb9b" fill-opacity="1"><g transform="translate(107.682843, 196.216022)"><g><path d="M 15.59375 -4.0625 C 15.59375 -3.195312 15.882812 -2.351562 16.46875 -1.53125 C 17.050781 -0.71875 17.753906 -0.242188 18.578125 -0.109375 L 14.09375 -0.078125 L 1.8125 -0.015625 C 2.625 -0.160156 3.316406 -0.644531 3.890625 -1.46875 C 4.460938 -2.289062 4.75 -3.132812 4.75 -4 L 4.734375 -6.03125 L 4.640625 -22.15625 L 4.5625 -35.875 L 4.5625 -37.25 L 4.546875 -39.859375 L 4.515625 -44.046875 L 4.515625 -44.84375 C 4.515625 -45.707031 4.222656 -46.546875 3.640625 -47.359375 C 3.054688 -48.179688 2.359375 -48.664062 1.546875 -48.8125 L 13.890625 -50.671875 L 14.109375 -50.671875 C 14.492188 -50.671875 14.789062 -50.550781 15 -50.3125 C 15.21875 -50.082031 15.332031 -49.773438 15.34375 -49.390625 L 15.390625 -40.203125 L 15.421875 -34.0625 L 15.421875 -33.5625 L 15.578125 -6.09375 Z M 15.59375 -4.0625 "/></g></g></g><g fill="#d6cb9b" fill-opacity="1"><g transform="translate(128.065845, 196.103701)"><g><path d="M 15.59375 -4.0625 C 15.59375 -3.195312 15.882812 -2.351562 16.46875 -1.53125 C 17.050781 -0.71875 17.753906 -0.242188 18.578125 -0.109375 L 14.09375 -0.078125 L 1.8125 -0.015625 C 2.625 -0.160156 3.316406 -0.644531 3.890625 -1.46875 C 4.460938 -2.289062 4.75 -3.132812 4.75 -4 L 4.734375 -6.03125 L 4.625 -24.828125 L 4.609375 -28.9375 L 4.609375 -29.734375 C 4.597656 -30.648438 4.300781 -31.503906 3.71875 -32.296875 C 3.132812 -33.085938 2.4375 -33.554688 1.625 -33.703125 L 13.96875 -35.5625 L 14.1875 -35.5625 C 15 -35.570312 15.410156 -35.171875 15.421875 -34.359375 L 15.46875 -25.171875 L 15.578125 -6.09375 Z M 9.96875 -39.453125 C 8.425781 -39.441406 7.109375 -39.972656 6.015625 -41.046875 C 4.929688 -42.128906 4.382812 -43.441406 4.375 -44.984375 C 4.363281 -46.523438 4.894531 -47.851562 5.96875 -48.96875 C 7.050781 -50.082031 8.363281 -50.644531 9.90625 -50.65625 C 11.445312 -50.65625 12.773438 -50.101562 13.890625 -49 C 15.003906 -47.90625 15.566406 -46.585938 15.578125 -45.046875 C 15.585938 -44.273438 15.445312 -43.550781 15.15625 -42.875 C 14.875 -42.195312 14.476562 -41.601562 13.96875 -41.09375 C 13.46875 -40.59375 12.867188 -40.191406 12.171875 -39.890625 C 11.472656 -39.597656 10.738281 -39.453125 9.96875 -39.453125 Z M 9.96875 -39.453125 "/></g></g></g><g fill="#d6cb9b" fill-opacity="1"><g transform="translate(148.448847, 195.991379)"><g><path d="M 15.5 -21.203125 L 15.5625 -8.90625 L 15.59375 -4.0625 C 15.59375 -3.195312 15.882812 -2.351562 16.46875 -1.53125 C 17.050781 -0.71875 17.753906 -0.242188 18.578125 -0.109375 L 1.8125 -0.015625 C 2.625 -0.160156 3.316406 -0.644531 3.890625 -1.46875 C 4.460938 -2.289062 4.75 -3.132812 4.75 -4 L 4.71875 -8.84375 L 4.65625 -21.140625 L 4.625 -24.828125 L 4.609375 -28.9375 L 4.609375 -29.734375 C 4.597656 -30.648438 4.300781 -31.503906 3.71875 -32.296875 C 3.132812 -33.085938 2.4375 -33.554688 1.625 -33.703125 L 13.96875 -35.5625 L 14.1875 -35.5625 C 15 -35.570312 15.410156 -35.171875 15.421875 -34.359375 L 15.46875 -25.171875 Z M 34.609375 -4.15625 C 34.609375 -3.289062 34.898438 -2.453125 35.484375 -1.640625 C 36.066406 -0.828125 36.769531 -0.347656 37.59375 -0.203125 L 33.109375 -0.1875 L 20.8125 -0.109375 C 21.632812 -0.265625 22.332031 -0.75 22.90625 -1.5625 C 23.476562 -2.382812 23.765625 -3.226562 23.765625 -4.09375 L 23.75 -6.125 L 23.640625 -25.421875 C 23.640625 -26.335938 23.828125 -27.109375 24.203125 -27.734375 C 24.585938 -28.367188 25.015625 -28.9375 25.484375 -29.4375 C 25.960938 -29.945312 26.394531 -30.457031 26.78125 -30.96875 C 27.175781 -31.488281 27.375 -32.082031 27.375 -32.75 C 27.363281 -33.570312 26.894531 -34.28125 25.96875 -34.875 C 25.050781 -35.476562 23.867188 -35.773438 22.421875 -35.765625 C 20.878906 -35.753906 19.507812 -35.550781 18.3125 -35.15625 C 17.113281 -34.769531 16.269531 -34.453125 15.78125 -34.203125 C 17.46875 -35.035156 19.378906 -35.660156 21.515625 -36.078125 C 23.660156 -36.503906 25.695312 -36.503906 27.625 -36.078125 C 29.5625 -35.648438 31.179688 -34.691406 32.484375 -33.203125 C 33.796875 -31.722656 34.460938 -29.488281 34.484375 -26.5 L 34.59375 -6.1875 Z M 34.609375 -4.15625 "/></g></g></g><g fill="#d6cb9b" fill-opacity="1"><g transform="translate(187.841522, 195.774304)"><g><path d="M 31.46875 -7.984375 C 32.8125 -7.648438 34.066406 -7.097656 35.234375 -6.328125 C 36.398438 -5.566406 37.40625 -4.632812 38.25 -3.53125 C 39.09375 -2.425781 39.757812 -1.191406 40.25 0.171875 C 40.75 1.546875 41.003906 2.984375 41.015625 4.484375 C 41.003906 3.179688 40.742188 1.972656 40.234375 0.859375 C 39.722656 -0.242188 39.03125 -1.210938 38.15625 -2.046875 C 37.28125 -2.890625 36.285156 -3.546875 35.171875 -4.015625 C 34.054688 -4.492188 32.898438 -4.726562 31.703125 -4.71875 C 30.253906 -4.707031 28.953125 -4.375 27.796875 -3.71875 C 26.648438 -3.070312 25.5625 -2.257812 24.53125 -1.28125 C 23.5 -0.3125 22.488281 0.738281 21.5 1.875 C 20.519531 3.007812 19.503906 4.0625 18.453125 5.03125 C 17.398438 6 16.273438 6.8125 15.078125 7.46875 C 13.878906 8.125 12.554688 8.457031 11.109375 8.46875 C 9.804688 8.476562 8.597656 8.234375 7.484375 7.734375 C 6.367188 7.234375 5.390625 6.539062 4.546875 5.65625 C 3.703125 4.769531 3.035156 3.734375 2.546875 2.546875 C 2.054688 1.367188 1.8125 0.101562 1.8125 -1.25 C 1.789062 -3.414062 2.378906 -5.34375 3.578125 -7.03125 C 4.773438 -8.726562 6.304688 -9.894531 8.171875 -10.53125 C 7.515625 -10.144531 6.992188 -9.523438 6.609375 -8.671875 C 6.222656 -7.828125 6.035156 -6.992188 6.046875 -6.171875 C 6.054688 -4.867188 6.53125 -3.75 7.46875 -2.8125 C 8.414062 -1.882812 9.539062 -1.425781 10.84375 -1.4375 C 12.1875 -1.445312 13.539062 -1.78125 14.90625 -2.4375 C 16.28125 -3.09375 17.6875 -3.832031 19.125 -4.65625 C 17.101562 -4.9375 15.222656 -5.53125 13.484375 -6.4375 C 11.742188 -7.34375 10.226562 -8.488281 8.9375 -9.875 C 7.65625 -11.257812 6.648438 -12.84375 5.921875 -14.625 C 5.191406 -16.414062 4.820312 -18.320312 4.8125 -20.34375 C 4.800781 -22.457031 5.195312 -24.457031 6 -26.34375 C 6.8125 -28.226562 7.910156 -29.894531 9.296875 -31.34375 C 10.679688 -32.800781 12.320312 -33.96875 14.21875 -34.84375 C 16.125 -35.71875 18.160156 -36.210938 20.328125 -36.328125 C 18.785156 -35.929688 17.625 -34.367188 16.84375 -31.640625 C 16.0625 -28.921875 15.6875 -25.175781 15.71875 -20.40625 C 15.738281 -16.164062 16.082031 -12.734375 16.75 -10.109375 C 17.414062 -7.484375 18.375 -5.765625 19.625 -4.953125 C 20.539062 -5.484375 21.441406 -5.976562 22.328125 -6.4375 C 23.222656 -6.90625 24.148438 -7.285156 25.109375 -7.578125 C 25.734375 -8.929688 26.179688 -10.691406 26.453125 -12.859375 C 26.734375 -15.035156 26.867188 -17.570312 26.859375 -20.46875 C 26.828125 -25.238281 26.40625 -28.984375 25.59375 -31.703125 C 24.78125 -34.421875 23.601562 -35.96875 22.0625 -36.34375 C 24.226562 -36.25 26.265625 -35.773438 28.171875 -34.921875 C 30.078125 -34.066406 31.734375 -32.914062 33.140625 -31.46875 C 34.554688 -30.03125 35.675781 -28.375 36.5 -26.5 C 37.332031 -24.625 37.753906 -22.628906 37.765625 -20.515625 C 37.773438 -17.960938 37.21875 -15.597656 36.09375 -13.421875 C 34.976562 -11.242188 33.4375 -9.429688 31.46875 -7.984375 Z M 27.90625 13.140625 C 27.613281 13.484375 27.347656 13.847656 27.109375 14.234375 C 26.867188 14.628906 26.75 15.019531 26.75 15.40625 C 26.757812 15.976562 26.957031 16.441406 27.34375 16.796875 C 27.726562 17.148438 28.257812 17.328125 28.9375 17.328125 C 27.539062 17.335938 26.210938 17.128906 24.953125 16.703125 C 23.703125 16.273438 22.578125 15.691406 21.578125 14.953125 C 20.585938 14.210938 19.800781 13.347656 19.21875 12.359375 C 18.632812 11.378906 18.335938 10.335938 18.328125 9.234375 C 18.316406 7.691406 18.863281 6.359375 19.96875 5.234375 C 21.070312 4.117188 22.394531 3.5625 23.9375 3.5625 C 24.707031 3.550781 25.429688 3.6875 26.109375 3.96875 C 26.796875 4.25 27.390625 4.644531 27.890625 5.15625 C 28.398438 5.664062 28.800781 6.269531 29.09375 6.96875 C 29.382812 7.664062 29.53125 8.398438 29.53125 9.171875 C 29.539062 10.710938 29 12.035156 27.90625 13.140625 Z M 28.71875 -35.0625 C 27.21875 -36.164062 25.832031 -37.566406 24.5625 -39.265625 C 23.300781 -40.972656 22.664062 -42.910156 22.65625 -45.078125 C 22.644531 -46.617188 23.191406 -47.945312 24.296875 -49.0625 C 25.398438 -50.175781 26.722656 -50.738281 28.265625 -50.75 C 29.035156 -50.75 29.757812 -50.609375 30.4375 -50.328125 C 31.113281 -50.046875 31.707031 -49.65625 32.21875 -49.15625 C 32.726562 -48.65625 33.128906 -48.050781 33.421875 -47.34375 C 33.710938 -46.644531 33.859375 -45.910156 33.859375 -45.140625 C 33.867188 -43.835938 33.523438 -42.773438 32.828125 -41.953125 C 32.140625 -41.128906 31.242188 -40.429688 30.140625 -39.859375 C 29.316406 -39.410156 28.710938 -39.003906 28.328125 -38.640625 C 27.953125 -38.285156 27.765625 -37.769531 27.765625 -37.09375 C 27.765625 -36.46875 28.082031 -35.789062 28.71875 -35.0625 Z M 28.71875 -35.0625 "/></g></g></g><g fill="#d6cb9b" fill-opacity="1"><g transform="translate(230.703651, 195.53811)"><g><path d="M 24.546875 -4.40625 C 25.941406 -4.40625 27.3125 -4.757812 28.65625 -5.46875 C 30.007812 -6.175781 31.1875 -7.15625 32.1875 -8.40625 C 30.75 -5.8125 28.804688 -3.722656 26.359375 -2.140625 C 23.921875 -0.554688 21.226562 0.242188 18.28125 0.265625 C 16.019531 0.273438 13.882812 -0.191406 11.875 -1.140625 C 9.875 -2.097656 8.117188 -3.390625 6.609375 -5.015625 C 5.109375 -6.648438 3.921875 -8.570312 3.046875 -10.78125 C 2.171875 -13 1.726562 -15.382812 1.71875 -17.9375 C 1.695312 -20.445312 2.113281 -22.820312 2.96875 -25.0625 C 3.820312 -27.3125 4.988281 -29.257812 6.46875 -30.90625 C 7.957031 -32.550781 9.695312 -33.859375 11.6875 -34.828125 C 13.6875 -35.804688 15.816406 -36.300781 18.078125 -36.3125 C 17.597656 -36.207031 17.035156 -35.757812 16.390625 -34.96875 C 15.742188 -34.175781 15.132812 -33.125 14.5625 -31.8125 C 14 -30.507812 13.515625 -29 13.109375 -27.28125 C 12.710938 -25.5625 12.519531 -23.738281 12.53125 -21.8125 C 12.550781 -19.40625 12.878906 -17.144531 13.515625 -15.03125 C 14.148438 -12.914062 15.015625 -11.066406 16.109375 -9.484375 C 17.203125 -7.898438 18.472656 -6.65625 19.921875 -5.75 C 21.367188 -4.84375 22.910156 -4.394531 24.546875 -4.40625 Z M 23.578125 -23.984375 C 23.566406 -25.421875 23.4375 -26.828125 23.1875 -28.203125 C 22.9375 -29.578125 22.613281 -30.816406 22.21875 -31.921875 C 21.832031 -33.035156 21.359375 -33.972656 20.796875 -34.734375 C 20.242188 -35.503906 19.65625 -36.035156 19.03125 -36.328125 C 20.851562 -36.191406 22.5625 -35.738281 24.15625 -34.96875 C 25.757812 -34.207031 27.1875 -33.203125 28.4375 -31.953125 C 29.695312 -30.710938 30.753906 -29.25 31.609375 -27.5625 C 32.460938 -25.882812 33.085938 -24.0625 33.484375 -22.09375 L 25.171875 -22.046875 L 22 -22.03125 L 21.5625 -22.03125 C 22.09375 -22.03125 22.5625 -22.222656 22.96875 -22.609375 C 23.375 -22.992188 23.578125 -23.453125 23.578125 -23.984375 Z M 23.578125 -23.984375 "/></g></g></g><g fill="#d6cb9b" fill-opacity="1"><g transform="translate(266.120916, 195.342941)"><g><path d="M 24.65625 -37.078125 C 26.195312 -36.992188 27.523438 -36.4375 28.640625 -35.40625 C 29.753906 -34.375 30.316406 -33.085938 30.328125 -31.546875 C 30.335938 -30.003906 29.789062 -28.675781 28.6875 -27.5625 C 27.582031 -26.445312 26.257812 -25.882812 24.71875 -25.875 C 23.945312 -25.863281 23.222656 -26 22.546875 -26.28125 C 21.878906 -26.570312 21.289062 -26.96875 20.78125 -27.46875 C 20.269531 -27.976562 19.863281 -28.582031 19.5625 -29.28125 C 19.269531 -29.976562 19.125 -30.710938 19.125 -31.484375 C 19.125 -31.765625 19.171875 -32.148438 19.265625 -32.640625 C 19.503906 -33.597656 19.304688 -34.253906 18.671875 -34.609375 C 18.046875 -34.972656 17.035156 -34.816406 15.640625 -34.140625 C 16.265625 -34.472656 16.957031 -34.8125 17.71875 -35.15625 C 18.488281 -35.5 19.269531 -35.816406 20.0625 -36.109375 C 20.863281 -36.410156 21.660156 -36.65625 22.453125 -36.84375 C 23.253906 -37.039062 23.988281 -37.117188 24.65625 -37.078125 Z M 15.59375 -4.0625 C 15.59375 -3.195312 15.882812 -2.351562 16.46875 -1.53125 C 17.050781 -0.71875 17.753906 -0.242188 18.578125 -0.109375 L 1.8125 -0.015625 C 2.625 -0.160156 3.316406 -0.644531 3.890625 -1.46875 C 4.460938 -2.289062 4.75 -3.132812 4.75 -4 L 4.71875 -8.84375 L 4.625 -24.828125 L 4.609375 -28.9375 L 4.609375 -29.734375 C 4.597656 -30.648438 4.300781 -31.503906 3.71875 -32.296875 C 3.132812 -33.085938 2.4375 -33.554688 1.625 -33.703125 L 13.96875 -35.5625 L 14.1875 -35.5625 C 15 -35.570312 15.410156 -35.171875 15.421875 -34.359375 L 15.46875 -25.171875 L 15.5625 -8.90625 Z M 15.59375 -4.0625 "/></g></g></g><g fill="#d6cb9b" fill-opacity="1"><g transform="translate(271.611406, 218.937438)"><g><path d="M 5.738281 -4.316406 L 5.851562 -4.289062 L 6.027344 -5.457031 L 5.976562 -5.457031 C 5.699219 -5.621094 4.1875 -6.460938 2.640625 -6.042969 C 0.976562 -5.597656 -0.0117188 -3.894531 0.429688 -2.246094 C 1.269531 0.875 5.597656 0.558594 6.054688 -1.726562 L 5.964844 -1.726562 C 5.558594 0.113281 2.234375 0.683594 1.332031 -2.359375 L 1.292969 -2.476562 C 0.976562 -3.71875 1.21875 -5.570312 2.652344 -5.953125 C 3.984375 -6.382812 5.214844 -5.507812 5.738281 -4.316406 Z M 5.738281 -4.316406 "/></g></g></g><g fill="#d6cb9b" fill-opacity="1"><g transform="translate(280.975433, 218.937438)"><g><path d="M 0.429688 -2.324219 C 0.875 -0.660156 2.578125 0.316406 4.238281 -0.125 C 5.890625 -0.570312 6.878906 -2.273438 6.433594 -3.921875 C 5.992188 -5.585938 4.289062 -6.5625 2.628906 -6.117188 C 0.976562 -5.671875 -0.0117188 -3.972656 0.429688 -2.324219 Z M 5.570312 -3.691406 C 5.902344 -2.460938 5.648438 -0.597656 4.214844 -0.214844 C 2.78125 0.175781 1.625 -1.320312 1.292969 -2.550781 C 0.964844 -3.78125 1.230469 -5.648438 2.652344 -6.027344 C 4.085938 -6.410156 5.242188 -4.925781 5.570312 -3.691406 Z M 5.570312 -3.691406 "/></g></g></g><g fill="#d6cb9b" fill-opacity="1"><g transform="translate(290.83421, 218.937438)"><g><path d="M 5.46875 -0.0117188 L 6.652344 -0.0117188 L 6.652344 -0.125 C 6.574219 -0.125 6.359375 -0.265625 6.359375 -1.105469 L 6.359375 -9.175781 L 5.164062 -8.730469 L 5.203125 -8.617188 C 5.265625 -8.617188 5.40625 -8.527344 5.46875 -8.085938 L 5.46875 -5.890625 C 4.898438 -6.117188 4.402344 -6.207031 3.960938 -6.195312 C 2.945312 -6.207031 2.082031 -5.773438 1.460938 -5.128906 C -0.0625 -3.542969 -0.316406 -0.394531 2.324219 0.0625 C 2.816406 0.152344 3.3125 0.0898438 3.757812 -0.164062 L 3.910156 -0.253906 C 4.25 -0.480469 4.570312 -0.851562 4.835938 -1.332031 C 5.128906 -1.878906 5.355469 -2.589844 5.46875 -3.425781 Z M 5.46875 -4.65625 L 5.457031 -4.65625 C 5.457031 -4.367188 5.445312 -4.085938 5.417969 -3.820312 C 5.40625 -3.640625 5.382812 -3.453125 5.34375 -3.273438 C 5.214844 -2.488281 4.949219 -1.664062 4.519531 -1.039062 C 4.300781 -0.710938 4.035156 -0.429688 3.707031 -0.253906 C 3.136719 0.0390625 2.589844 -0.125 2.15625 -0.558594 C 1.207031 -1.511719 1.34375 -3.71875 1.96875 -4.847656 C 2.398438 -5.609375 3.058594 -6.078125 3.945312 -6.105469 C 4.417969 -6.105469 4.925781 -6.003906 5.46875 -5.789062 Z M 5.46875 -4.65625 "/></g></g></g><g fill="#d6cb9b" fill-opacity="1"><g transform="translate(300.794475, 218.937438)"><g><path d="M 0.355469 -5.558594 C 0.417969 -5.558594 0.570312 -5.46875 0.632812 -5.011719 L 0.632812 -1.089844 C 0.632812 -0.253906 0.417969 -0.113281 0.328125 -0.113281 L 0.328125 0 L 1.800781 0 L 1.800781 -0.113281 C 1.726562 -0.113281 1.511719 -0.253906 1.511719 -1.089844 L 1.511719 -6.117188 L 0.316406 -5.660156 Z M 0.976562 -7.144531 C 1.308594 -7.144531 1.574219 -7.410156 1.574219 -7.742188 C 1.574219 -8.070312 1.308594 -8.339844 0.976562 -8.339844 C 0.648438 -8.339844 0.378906 -8.070312 0.378906 -7.742188 C 0.378906 -7.410156 0.648438 -7.144531 0.976562 -7.144531 Z M 0.976562 -7.144531 "/></g></g></g><g fill="#d6cb9b" fill-opacity="1"><g transform="translate(305.908675, 218.937438)"><g><path d="M 0.316406 -6.003906 C 0.394531 -6.003906 0.609375 -5.851562 0.609375 -5.027344 L 0.609375 -1.089844 C 0.609375 -0.253906 0.394531 -0.113281 0.316406 -0.113281 L 0.316406 0 L 1.777344 0 L 1.777344 -0.113281 C 1.699219 -0.113281 1.484375 -0.253906 1.484375 -1.089844 C 1.484375 -2.691406 1.726562 -3.871094 2.09375 -4.671875 C 2.359375 -5.242188 2.996094 -6.09375 3.71875 -5.851562 C 4.429688 -5.609375 4.519531 -4.367188 4.519531 -3.757812 L 4.519531 -1.089844 C 4.519531 -0.253906 4.300781 -0.113281 4.226562 -0.113281 L 4.226562 0 L 5.699219 0 L 5.699219 -0.113281 C 5.621094 -0.113281 5.40625 -0.253906 5.40625 -1.089844 L 5.40625 -3.757812 C 5.40625 -4.898438 5.113281 -6.167969 3.730469 -6.167969 C 2.894531 -6.167969 2.324219 -5.417969 1.992188 -4.722656 C 1.777344 -4.226562 1.585938 -3.605469 1.484375 -2.832031 L 1.484375 -6.117188 L 0.316406 -6.117188 Z M 0.316406 -6.003906 "/></g></g></g><g fill="#d6cb9b" fill-opacity="1"><g transform="translate(314.917492, 218.937438)"><g><path d="M 0.429688 -2.324219 C 0.773438 -1.027344 1.902344 -0.140625 3.171875 -0.0234375 C 2.375 0.0625 0.480469 0.140625 0.671875 1.28125 C 1.039062 3.121094 3.972656 1.140625 4.785156 0.632812 C 7.058594 -0.722656 6.636719 1.472656 5.890625 1.917969 C 5.394531 2.207031 4.671875 1.929688 3.882812 1.308594 L 3.820312 1.371094 C 4.441406 1.992188 5.558594 2.398438 6.359375 2.03125 C 7.425781 1.535156 7.460938 -0.304688 6.296875 -0.152344 C 5.851562 -0.101562 5.28125 0.214844 4.734375 0.558594 C 4.25 0.851562 1.523438 2.5625 1.320312 1.167969 C 1.15625 -0.0742188 3.414062 0.226562 4.417969 -0.175781 C 5.964844 -0.683594 6.878906 -2.335938 6.449219 -3.933594 C 6.230469 -4.707031 5.75 -5.34375 5.128906 -5.75 L 5.660156 -5.875 C 6.890625 -6.15625 7.132812 -5.75 7.132812 -5.75 L 7.246094 -5.773438 L 7.132812 -6.246094 L 7.109375 -6.359375 L 6.992188 -6.828125 L 6.878906 -6.804688 L 6.878906 -6.789062 C 6.890625 -6.753906 6.929688 -6.347656 5.40625 -5.941406 L 4.988281 -5.824219 C 4.300781 -6.21875 3.464844 -6.359375 2.628906 -6.128906 C 0.964844 -5.6875 -0.0117188 -3.984375 0.429688 -2.324219 Z M 5.585938 -3.707031 C 5.914062 -2.476562 5.648438 -0.597656 4.214844 -0.214844 C 2.78125 0.175781 1.625 -1.320312 1.292969 -2.550781 C 0.964844 -3.78125 1.21875 -5.660156 2.652344 -6.042969 C 4.085938 -6.433594 5.253906 -4.9375 5.585938 -3.707031 Z M 5.585938 -3.707031 "/></g></g></g></svg>