<svg xmlns="http://www.w3.org/2000/svg" xmlns:xlink="http://www.w3.org/1999/xlink" width="500" zoomAndPan="magnify" viewBox="0 0 375 374.999991" height="500" preserveAspectRatio="xMidYMid meet" version="1.0"><defs><g/><clipPath id="id1"><path d="M 143.960938 143.960938 L 230.960938 143.960938 L 230.960938 230.960938 L 143.960938 230.960938 Z M 143.960938 143.960938 " clip-rule="nonzero"/></clipPath><clipPath id="id2"><path d="M 143.960938 143.960938 L 230.960938 143.960938 L 230.960938 202 L 143.960938 202 Z M 143.960938 143.960938 " clip-rule="nonzero"/></clipPath><clipPath id="id3"><path d="M 185 208 L 190 208 L 190 221.210938 L 185 221.210938 Z M 185 208 " clip-rule="nonzero"/></clipPath></defs><g clip-path="url(#id1)"><path fill="#27231f" d="M 230.960938 187.460938 C 230.960938 188.882812 230.890625 190.304688 230.75 191.722656 C 230.609375 193.140625 230.402344 194.546875 230.125 195.945312 C 229.84375 197.34375 229.5 198.722656 229.085938 200.085938 C 228.671875 201.449219 228.191406 202.789062 227.648438 204.105469 C 227.101562 205.421875 226.496094 206.707031 225.824219 207.964844 C 225.152344 209.222656 224.417969 210.441406 223.628906 211.625 C 222.835938 212.8125 221.988281 213.953125 221.085938 215.054688 C 220.179688 216.15625 219.226562 217.210938 218.21875 218.21875 C 217.210938 219.226562 216.15625 220.179688 215.054688 221.085938 C 213.953125 221.988281 212.8125 222.835938 211.625 223.628906 C 210.441406 224.417969 209.222656 225.152344 207.964844 225.824219 C 206.707031 226.496094 205.421875 227.101562 204.105469 227.648438 C 202.789062 228.191406 201.449219 228.671875 200.085938 229.085938 C 198.722656 229.5 197.34375 229.84375 195.945312 230.125 C 194.546875 230.402344 193.140625 230.609375 191.722656 230.75 C 190.304688 230.890625 188.882812 230.960938 187.460938 230.960938 C 186.035156 230.960938 184.613281 230.890625 183.195312 230.75 C 181.777344 230.609375 180.371094 230.402344 178.972656 230.125 C 177.574219 229.84375 176.195312 229.5 174.832031 229.085938 C 173.46875 228.671875 172.128906 228.191406 170.8125 227.648438 C 169.496094 227.101562 168.210938 226.496094 166.953125 225.824219 C 165.695312 225.152344 164.476562 224.417969 163.292969 223.628906 C 162.105469 222.835938 160.964844 221.988281 159.863281 221.085938 C 158.761719 220.179688 157.707031 219.226562 156.699219 218.21875 C 155.691406 217.210938 154.738281 216.15625 153.832031 215.054688 C 152.929688 213.953125 152.082031 212.8125 151.289062 211.625 C 150.5 210.441406 149.765625 209.222656 149.097656 207.964844 C 148.425781 206.707031 147.816406 205.421875 147.269531 204.105469 C 146.726562 202.789062 146.246094 201.449219 145.832031 200.085938 C 145.417969 198.722656 145.074219 197.34375 144.796875 195.945312 C 144.515625 194.546875 144.308594 193.140625 144.167969 191.722656 C 144.027344 190.304688 143.960938 188.882812 143.960938 187.460938 C 143.960938 186.035156 144.027344 184.613281 144.167969 183.195312 C 144.308594 181.777344 144.515625 180.371094 144.796875 178.972656 C 145.074219 177.574219 145.417969 176.195312 145.832031 174.832031 C 146.246094 173.46875 146.726562 172.128906 147.269531 170.8125 C 147.816406 169.496094 148.425781 168.210938 149.097656 166.953125 C 149.765625 165.695312 150.5 164.476562 151.289062 163.292969 C 152.082031 162.105469 152.929688 160.964844 153.832031 159.863281 C 154.738281 158.761719 155.691406 157.707031 156.699219 156.699219 C 157.707031 155.691406 158.761719 154.738281 159.863281 153.832031 C 160.964844 152.929688 162.105469 152.082031 163.292969 151.289062 C 164.476562 150.5 165.695312 149.765625 166.953125 149.097656 C 168.210938 148.425781 169.496094 147.816406 170.8125 147.269531 C 172.128906 146.726562 173.46875 146.246094 174.832031 145.832031 C 176.195312 145.417969 177.574219 145.074219 178.972656 144.796875 C 180.371094 144.515625 181.777344 144.308594 183.195312 144.167969 C 184.613281 144.027344 186.035156 143.960938 187.460938 143.960938 C 188.882812 143.960938 190.304688 144.027344 191.722656 144.167969 C 193.140625 144.308594 194.546875 144.515625 195.945312 144.796875 C 197.34375 145.074219 198.722656 145.417969 200.085938 145.832031 C 201.449219 146.246094 202.789062 146.726562 204.105469 147.269531 C 205.421875 147.816406 206.707031 148.425781 207.964844 149.097656 C 209.222656 149.765625 210.441406 150.5 211.625 151.289062 C 212.8125 152.082031 213.953125 152.929688 215.054688 153.832031 C 216.15625 154.738281 217.210938 155.691406 218.21875 156.699219 C 219.226562 157.707031 220.179688 158.761719 221.085938 159.863281 C 221.988281 160.964844 222.835938 162.105469 223.628906 163.292969 C 224.417969 164.476562 225.152344 165.695312 225.824219 166.953125 C 226.496094 168.210938 227.101562 169.496094 227.648438 170.8125 C 228.191406 172.128906 228.671875 173.46875 229.085938 174.832031 C 229.5 176.195312 229.84375 177.574219 230.125 178.972656 C 230.402344 180.371094 230.609375 181.777344 230.75 183.195312 C 230.890625 184.613281 230.960938 186.035156 230.960938 187.460938 Z M 230.960938 187.460938 " fill-opacity="1" fill-rule="nonzero"/></g><path fill="#f9ef23" d="M 187.460938 226.808594 C 165.742188 226.808594 148.109375 209.175781 148.109375 187.460938 C 148.109375 165.742188 165.742188 148.109375 187.460938 148.109375 C 209.175781 148.109375 226.808594 165.742188 226.808594 187.460938 C 226.808594 209.175781 209.175781 226.808594 187.460938 226.808594 Z M 187.460938 149.082031 C 166.261719 149.082031 149.082031 166.261719 149.082031 187.460938 C 149.082031 208.660156 166.324219 225.835938 187.460938 225.835938 C 208.660156 225.835938 225.835938 208.59375 225.835938 187.460938 C 225.835938 166.261719 208.660156 149.082031 187.460938 149.082031 Z M 187.460938 149.082031 " fill-opacity="1" fill-rule="nonzero"/><g clip-path="url(#id2)"><path fill="#f9ef23" d="M 143.960938 144.007812 C 144.292969 145.292969 144.558594 146.597656 144.976562 147.855469 C 145.796875 150.335938 146.558594 152.84375 147.601562 155.226562 C 148.679688 157.6875 150.601562 159.445312 152.960938 160.785156 C 161.523438 165.640625 170.054688 170.550781 178.597656 175.445312 C 178.84375 175.589844 179.085938 175.75 179.296875 175.960938 C 169.09375 171.3125 159.164062 166.140625 149.433594 160.148438 C 149.566406 160.511719 149.613281 160.699219 149.703125 160.863281 C 151.257812 163.671875 152.84375 166.464844 154.378906 169.285156 C 155.785156 171.871094 158.046875 172.976562 160.855469 173.40625 C 165.570312 174.117188 170.257812 174.972656 174.960938 175.769531 C 176.4375 176.023438 177.910156 176.285156 179.378906 176.597656 C 172.019531 176.292969 164.730469 175.355469 157.390625 174.28125 C 157.808594 174.628906 158.234375 174.976562 158.648438 175.332031 C 160.394531 176.820312 162.183594 178.257812 163.863281 179.824219 C 165.207031 181.074219 166.59375 181.296875 168.3125 180.710938 C 171.878906 179.5 175.484375 178.40625 179.074219 177.261719 C 179.195312 177.222656 179.316406 177.203125 179.457031 177.238281 C 178.117188 177.863281 176.761719 178.460938 175.441406 179.125 C 173.570312 180.066406 171.902344 181.300781 170.484375 182.847656 C 169.019531 184.449219 168.796875 186.195312 170.027344 187.945312 C 171.683594 190.304688 173.484375 192.5625 175.316406 194.851562 C 173.699219 188.003906 175.246094 182.101562 180.4375 177.261719 C 180.300781 177.519531 180.164062 177.78125 180.023438 178.039062 C 178.378906 181.058594 176.957031 184.164062 176.472656 187.617188 C 176.128906 190.066406 176.5 192.320312 178.390625 194.09375 C 180.414062 195.996094 182.472656 197.867188 184.511719 199.753906 C 185.277344 200.460938 186.035156 201.179688 186.851562 201.871094 C 182.554688 194.226562 180.703125 185.988281 180.925781 177.230469 C 181.988281 180.726562 183.058594 184.21875 184.121094 187.714844 C 185.179688 191.207031 186.234375 194.703125 187.484375 198.191406 C 189.605469 191.203125 191.730469 184.214844 193.851562 177.226562 C 194.078125 185.96875 192.234375 194.191406 187.980469 201.875 C 188.117188 201.757812 188.257812 201.644531 188.386719 201.523438 C 188.527344 201.394531 188.652344 201.25 188.792969 201.125 C 190.910156 199.199219 192.960938 197.195312 195.164062 195.371094 C 198.304688 192.769531 198.996094 189.574219 197.964844 185.773438 C 197.222656 183.046875 196.105469 180.492188 194.75 178.027344 C 194.632812 177.8125 194.511719 177.605469 194.398438 177.390625 C 194.378906 177.351562 194.402344 177.289062 194.410156 177.136719 C 196.867188 179.433594 198.578125 182.105469 199.449219 185.292969 C 200.316406 188.46875 200.210938 191.636719 199.492188 194.863281 C 200.636719 193.410156 201.785156 191.964844 202.914062 190.5 C 203.476562 189.773438 204.019531 189.035156 204.546875 188.28125 C 205.96875 186.265625 205.828125 184.460938 204.125 182.660156 C 202.097656 180.519531 199.59375 179.109375 196.921875 177.96875 C 196.378906 177.738281 195.839844 177.503906 195.34375 177.140625 C 197.453125 177.765625 199.566406 178.359375 201.664062 179.019531 C 203.203125 179.5 204.75 179.996094 206.238281 180.613281 C 208.074219 181.375 209.566406 181.09375 211.03125 179.714844 C 212.859375 178 214.835938 176.441406 216.746094 174.816406 C 216.949219 174.640625 217.148438 174.46875 217.332031 174.214844 C 210.050781 175.34375 202.761719 176.296875 195.394531 176.554688 C 198.167969 176.054688 200.9375 175.527344 203.71875 175.054688 C 207.410156 174.429688 211.109375 173.855469 214.804688 173.242188 C 217.039062 172.867188 218.894531 171.824219 220.050781 169.824219 C 221.804688 166.789062 223.480469 163.707031 225.1875 160.640625 C 225.234375 160.554688 225.25 160.457031 225.351562 160.144531 C 215.621094 166.132812 205.683594 171.3125 195.425781 175.878906 C 198.101562 174.308594 200.753906 172.710938 203.445312 171.175781 C 209.417969 167.765625 215.378906 164.328125 221.410156 161.023438 C 224.472656 159.34375 226.699219 156.992188 227.875 153.757812 C 229.03125 150.578125 229.941406 147.308594 230.960938 144.078125 C 230.878906 144.039062 230.800781 144.003906 230.71875 143.96875 C 230.621094 144.0625 230.5 144.140625 230.425781 144.25 C 225.828125 150.949219 219.789062 156.042969 212.835938 160.125 C 208.25 162.8125 203.695312 165.550781 199.105469 168.226562 C 196.855469 169.539062 195.785156 171.695312 194.859375 173.960938 C 194.515625 174.808594 194.265625 175.691406 193.933594 176.660156 C 192.722656 175.050781 192.097656 173.339844 192.195312 171.367188 C 192.230469 170.617188 192.320312 169.820312 192.125 169.117188 C 191.484375 166.820312 189.679688 165.8125 187.519531 165.316406 C 186.289062 165.03125 185.125 165.144531 184.109375 166.046875 C 183.871094 166.257812 183.40625 166.246094 183.042969 166.285156 C 181.472656 166.457031 180.765625 167.203125 180.960938 168.523438 C 183.296875 167.890625 184.914062 169.210938 184.828125 171.679688 C 184.738281 174.167969 183.011719 176.351562 180.847656 176.667969 C 180.53125 175.742188 180.242188 174.796875 179.890625 173.871094 C 178.859375 171.171875 177.265625 169.015625 174.644531 167.546875 C 169.914062 164.90625 165.277344 162.09375 160.625 159.300781 C 154.179688 155.433594 148.6875 150.515625 144.394531 144.304688 C 144.304688 144.179688 144.203125 144.066406 143.960938 144.007812 Z M 185.375 167.269531 L 185.394531 166.652344 L 187.082031 167.0625 L 187.066406 167.246094 Z M 185.375 167.269531 " fill-opacity="1" fill-rule="nonzero"/></g><path fill="#f9ef23" d="M 173.3125 214.207031 C 175.039062 214.207031 176.597656 214.292969 178.136719 214.179688 C 179.386719 214.09375 180.429688 213.421875 181.253906 212.46875 C 183.316406 210.089844 184.527344 207.285156 185.222656 204.25 C 185.589844 202.644531 184.535156 200.417969 182.804688 198.949219 C 183.097656 199.648438 183.328125 200.199219 183.558594 200.75 C 184.253906 202.40625 184.136719 203.949219 183.164062 205.515625 C 180.984375 209.035156 177.917969 211.554688 174.390625 213.59375 C 174.078125 213.777344 173.761719 213.953125 173.3125 214.207031 Z M 173.3125 214.207031 " fill-opacity="1" fill-rule="nonzero"/><path fill="#f9ef23" d="M 201.3125 214.148438 C 200.46875 213.640625 199.609375 213.152344 198.785156 212.617188 C 195.925781 210.757812 193.480469 208.492188 191.644531 205.574219 C 190.625 203.957031 190.519531 202.363281 191.253906 200.65625 C 191.472656 200.148438 191.691406 199.636719 191.9375 199.0625 C 190.261719 200.160156 189.183594 202.746094 189.628906 204.582031 C 190.257812 207.148438 191.304688 209.519531 192.859375 211.671875 C 194.136719 213.445312 195.808594 214.375 198.019531 214.292969 C 199.109375 214.253906 200.199219 214.285156 201.289062 214.285156 C 201.296875 214.238281 201.304688 214.195312 201.3125 214.148438 Z M 201.3125 214.148438 " fill-opacity="1" fill-rule="nonzero"/><g clip-path="url(#id3)"><path fill="#f9ef23" d="M 187.429688 221.203125 C 188.789062 219.242188 189.355469 217.179688 188.867188 214.875 C 188.414062 212.75 187.960938 210.621094 187.507812 208.496094 C 187.441406 208.488281 187.375 208.480469 187.308594 208.472656 C 187.214844 208.886719 187.113281 209.300781 187.023438 209.71875 C 186.632812 211.503906 186.230469 213.289062 185.867188 215.082031 C 185.441406 217.164062 186.0625 219.589844 187.429688 221.203125 Z M 187.429688 221.203125 " fill-opacity="1" fill-rule="nonzero"/></g><path fill="#f9ef23" d="M 186.261719 205.085938 C 185.34375 207.144531 184.433594 209.414062 183.332031 211.589844 C 182.222656 213.785156 180.625 215.652344 178.777344 217.363281 C 181.027344 217.808594 183.453125 216.527344 184.476562 214.347656 C 185.894531 211.335938 186.421875 208.144531 186.261719 205.085938 Z M 186.261719 205.085938 " fill-opacity="1" fill-rule="nonzero"/><path fill="#f9ef23" d="M 188.585938 204.828125 C 188.347656 208.085938 188.882812 211.199219 190.199219 214.15625 C 191.214844 216.445312 193.363281 217.65625 196.046875 217.425781 C 192.277344 213.914062 189.976562 209.636719 188.585938 204.828125 Z M 188.585938 204.828125 " fill-opacity="1" fill-rule="nonzero"/><path fill="#f9ef23" d="M 206.296875 203.292969 C 205.453125 202.78125 204.59375 202.292969 203.769531 201.757812 C 200.910156 199.898438 198.464844 197.632812 196.628906 194.714844 C 195.609375 193.097656 195.503906 191.507812 196.238281 189.796875 C 196.457031 189.289062 196.675781 188.777344 196.921875 188.207031 C 195.246094 189.300781 194.167969 191.886719 194.617188 193.722656 C 195.242188 196.289062 196.289062 198.664062 197.84375 200.816406 C 199.121094 202.589844 200.792969 203.515625 203.007812 203.433594 C 204.09375 203.394531 205.183594 203.425781 206.273438 203.425781 C 206.28125 203.382812 206.289062 203.335938 206.296875 203.292969 Z M 206.296875 203.292969 " fill-opacity="1" fill-rule="nonzero"/><path fill="#f9ef23" d="M 193.570312 193.972656 C 193.332031 197.230469 193.871094 200.339844 195.183594 203.296875 C 196.199219 205.585938 198.347656 206.796875 201.03125 206.566406 C 197.261719 203.054688 194.960938 198.777344 193.570312 193.972656 Z M 193.570312 193.972656 " fill-opacity="1" fill-rule="nonzero"/><path fill="#f9ef23" d="M 169.183594 203.292969 C 170.023438 202.78125 170.882812 202.292969 171.710938 201.757812 C 174.566406 199.898438 177.011719 197.632812 178.851562 194.714844 C 179.867188 193.097656 179.972656 191.507812 179.242188 189.796875 C 179.019531 189.289062 178.800781 188.777344 178.554688 188.207031 C 180.230469 189.300781 181.308594 191.886719 180.863281 193.722656 C 180.238281 196.289062 179.1875 198.664062 177.636719 200.816406 C 176.355469 202.589844 174.6875 203.515625 172.472656 203.433594 C 171.382812 203.394531 170.292969 203.425781 169.203125 203.425781 C 169.195312 203.382812 169.191406 203.335938 169.183594 203.292969 Z M 169.183594 203.292969 " fill-opacity="1" fill-rule="nonzero"/><path fill="#f9ef23" d="M 181.90625 193.972656 C 182.144531 197.230469 181.609375 200.339844 180.296875 203.296875 C 179.28125 205.585938 177.128906 206.796875 174.445312 206.566406 C 178.214844 203.054688 180.515625 198.777344 181.90625 193.972656 Z M 181.90625 193.972656 " fill-opacity="1" fill-rule="nonzero"/><path fill="#27231f" d="M 185.394531 167.246094 C 185.953125 167.246094 186.511719 167.246094 187.070312 167.246094 C 187.074219 167.183594 187.078125 167.125 187.082031 167.066406 C 186.523438 167.019531 185.96875 166.972656 185.414062 166.925781 C 185.40625 167.03125 185.402344 167.140625 185.394531 167.246094 Z M 185.394531 167.246094 " fill-opacity="1" fill-rule="nonzero"/><g fill="#ffffff" fill-opacity="1"><g transform="translate(174.202728, 242.278798)"><g><path d="M 4.796875 -1.59375 C 4.796875 -1.039062 4.585938 -0.617188 4.171875 -0.328125 C 3.765625 -0.0351562 3.175781 0.109375 2.40625 0.109375 C 1.59375 0.109375 0.945312 -0.015625 0.46875 -0.265625 L 0.46875 -0.859375 C 1.082031 -0.554688 1.726562 -0.40625 2.40625 -0.40625 C 3.007812 -0.40625 3.46875 -0.503906 3.78125 -0.703125 C 4.09375 -0.898438 4.25 -1.164062 4.25 -1.5 C 4.25 -1.8125 4.125 -2.070312 3.875 -2.28125 C 3.625 -2.488281 3.21875 -2.691406 2.65625 -2.890625 C 2.039062 -3.109375 1.609375 -3.296875 1.359375 -3.453125 C 1.117188 -3.617188 0.9375 -3.800781 0.8125 -4 C 0.6875 -4.195312 0.625 -4.441406 0.625 -4.734375 C 0.625 -5.191406 0.8125 -5.550781 1.1875 -5.8125 C 1.570312 -6.082031 2.109375 -6.21875 2.796875 -6.21875 C 3.460938 -6.21875 4.085938 -6.09375 4.671875 -5.84375 L 4.46875 -5.34375 C 3.875 -5.582031 3.316406 -5.703125 2.796875 -5.703125 C 2.304688 -5.703125 1.914062 -5.617188 1.625 -5.453125 C 1.332031 -5.296875 1.1875 -5.070312 1.1875 -4.78125 C 1.1875 -4.457031 1.296875 -4.203125 1.515625 -4.015625 C 1.742188 -3.828125 2.1875 -3.613281 2.84375 -3.375 C 3.394531 -3.175781 3.796875 -3 4.046875 -2.84375 C 4.296875 -2.6875 4.484375 -2.503906 4.609375 -2.296875 C 4.734375 -2.097656 4.796875 -1.863281 4.796875 -1.59375 Z M 4.796875 -1.59375 "/></g></g></g><g fill="#ffffff" fill-opacity="1"><g transform="translate(179.55343, 242.278798)"><g><path d="M 1.578125 0 L 1.015625 0 L 1.015625 -8.71875 L 1.578125 -8.71875 Z M 1.578125 0 "/></g></g></g><g fill="#ffffff" fill-opacity="1"><g transform="translate(182.150264, 242.278798)"><g><path d="M 1.578125 0 L 1.015625 0 L 1.015625 -6.09375 L 1.578125 -6.09375 Z M 0.9375 -7.78125 C 0.9375 -8.144531 1.054688 -8.328125 1.296875 -8.328125 C 1.410156 -8.328125 1.5 -8.28125 1.5625 -8.1875 C 1.632812 -8.09375 1.671875 -7.957031 1.671875 -7.78125 C 1.671875 -7.613281 1.632812 -7.484375 1.5625 -7.390625 C 1.5 -7.296875 1.410156 -7.25 1.296875 -7.25 C 1.054688 -7.25 0.9375 -7.425781 0.9375 -7.78125 Z M 0.9375 -7.78125 "/></g></g></g><g fill="#ffffff" fill-opacity="1"><g transform="translate(184.747097, 242.278798)"><g><path d="M 5.265625 0 L 5.265625 -3.953125 C 5.265625 -4.566406 5.132812 -5.007812 4.875 -5.28125 C 4.625 -5.5625 4.226562 -5.703125 3.6875 -5.703125 C 2.957031 -5.703125 2.421875 -5.519531 2.078125 -5.15625 C 1.742188 -4.789062 1.578125 -4.191406 1.578125 -3.359375 L 1.578125 0 L 1.015625 0 L 1.015625 -6.09375 L 1.484375 -6.09375 L 1.59375 -5.265625 L 1.625 -5.265625 C 2.019531 -5.898438 2.726562 -6.21875 3.75 -6.21875 C 5.132812 -6.21875 5.828125 -5.472656 5.828125 -3.984375 L 5.828125 0 Z M 5.265625 0 "/></g></g></g><g fill="#ffffff" fill-opacity="1"><g transform="translate(191.52241, 242.278798)"><g><path d="M 5.78125 -6.09375 L 5.78125 -5.703125 L 4.515625 -5.625 C 4.847656 -5.207031 5.015625 -4.75 5.015625 -4.25 C 5.015625 -3.664062 4.816406 -3.191406 4.421875 -2.828125 C 4.035156 -2.460938 3.515625 -2.28125 2.859375 -2.28125 C 2.578125 -2.28125 2.382812 -2.289062 2.28125 -2.3125 C 2.0625 -2.195312 1.890625 -2.0625 1.765625 -1.90625 C 1.648438 -1.75 1.59375 -1.582031 1.59375 -1.40625 C 1.59375 -1.207031 1.664062 -1.0625 1.8125 -0.96875 C 1.96875 -0.882812 2.21875 -0.84375 2.5625 -0.84375 L 3.625 -0.84375 C 4.289062 -0.84375 4.796875 -0.707031 5.140625 -0.4375 C 5.492188 -0.175781 5.671875 0.21875 5.671875 0.75 C 5.671875 1.382812 5.410156 1.878906 4.890625 2.234375 C 4.367188 2.585938 3.625 2.765625 2.65625 2.765625 C 1.894531 2.765625 1.300781 2.613281 0.875 2.3125 C 0.457031 2.019531 0.25 1.609375 0.25 1.078125 C 0.25 0.660156 0.378906 0.3125 0.640625 0.03125 C 0.898438 -0.238281 1.253906 -0.425781 1.703125 -0.53125 C 1.515625 -0.601562 1.363281 -0.710938 1.25 -0.859375 C 1.144531 -1.003906 1.09375 -1.171875 1.09375 -1.359375 C 1.09375 -1.765625 1.351562 -2.125 1.875 -2.4375 C 1.519531 -2.582031 1.242188 -2.8125 1.046875 -3.125 C 0.847656 -3.4375 0.75 -3.789062 0.75 -4.1875 C 0.75 -4.800781 0.941406 -5.289062 1.328125 -5.65625 C 1.710938 -6.03125 2.234375 -6.21875 2.890625 -6.21875 C 3.296875 -6.21875 3.609375 -6.175781 3.828125 -6.09375 Z M 0.84375 1.03125 C 0.84375 1.863281 1.460938 2.28125 2.703125 2.28125 C 4.304688 2.28125 5.109375 1.769531 5.109375 0.75 C 5.109375 0.382812 4.984375 0.125 4.734375 -0.03125 C 4.484375 -0.195312 4.078125 -0.28125 3.515625 -0.28125 L 2.515625 -0.28125 C 1.398438 -0.28125 0.84375 0.15625 0.84375 1.03125 Z M 1.3125 -4.1875 C 1.3125 -3.71875 1.453125 -3.351562 1.734375 -3.09375 C 2.023438 -2.832031 2.40625 -2.703125 2.875 -2.703125 C 3.382812 -2.703125 3.773438 -2.832031 4.046875 -3.09375 C 4.316406 -3.351562 4.453125 -3.726562 4.453125 -4.21875 C 4.453125 -4.738281 4.3125 -5.128906 4.03125 -5.390625 C 3.757812 -5.648438 3.375 -5.78125 2.875 -5.78125 C 2.382812 -5.78125 2 -5.640625 1.71875 -5.359375 C 1.445312 -5.078125 1.3125 -4.6875 1.3125 -4.1875 Z M 1.3125 -4.1875 "/></g></g></g><g fill="#ffffff" fill-opacity="1"><g transform="translate(197.529334, 242.278798)"><g><path d="M 3.484375 0.109375 C 2.597656 0.109375 1.90625 -0.160156 1.40625 -0.703125 C 0.914062 -1.253906 0.671875 -2.019531 0.671875 -3 C 0.671875 -3.96875 0.910156 -4.742188 1.390625 -5.328125 C 1.867188 -5.921875 2.507812 -6.21875 3.3125 -6.21875 C 4.03125 -6.21875 4.597656 -5.960938 5.015625 -5.453125 C 5.429688 -4.953125 5.640625 -4.273438 5.640625 -3.421875 L 5.640625 -2.96875 L 1.25 -2.96875 C 1.257812 -2.132812 1.453125 -1.492188 1.828125 -1.046875 C 2.210938 -0.609375 2.765625 -0.390625 3.484375 -0.390625 C 3.828125 -0.390625 4.128906 -0.410156 4.390625 -0.453125 C 4.660156 -0.503906 5 -0.613281 5.40625 -0.78125 L 5.40625 -0.28125 C 5.0625 -0.125 4.742188 -0.0195312 4.453125 0.03125 C 4.160156 0.0820312 3.835938 0.109375 3.484375 0.109375 Z M 3.3125 -5.71875 C 2.726562 -5.71875 2.257812 -5.523438 1.90625 -5.140625 C 1.550781 -4.753906 1.34375 -4.195312 1.28125 -3.46875 L 5.046875 -3.46875 C 5.046875 -4.175781 4.890625 -4.726562 4.578125 -5.125 C 4.273438 -5.519531 3.851562 -5.71875 3.3125 -5.71875 Z M 3.3125 -5.71875 "/></g></g></g><g fill="#ffffff" fill-opacity="1"><g transform="translate(203.833516, 242.278798)"><g><path d="M 3.421875 -6.21875 C 3.679688 -6.21875 3.957031 -6.191406 4.25 -6.140625 L 4.140625 -5.609375 C 3.890625 -5.671875 3.628906 -5.703125 3.359375 -5.703125 C 2.835938 -5.703125 2.410156 -5.476562 2.078125 -5.03125 C 1.742188 -4.59375 1.578125 -4.035156 1.578125 -3.359375 L 1.578125 0 L 1.015625 0 L 1.015625 -6.09375 L 1.484375 -6.09375 L 1.546875 -5 L 1.59375 -5 C 1.84375 -5.445312 2.109375 -5.757812 2.390625 -5.9375 C 2.671875 -6.125 3.015625 -6.21875 3.421875 -6.21875 Z M 3.421875 -6.21875 "/></g></g></g></svg>